<?xml version="1.0" encoding="UTF-8" standalone="no"?>
<svg width="144px" height="21px" viewBox="0 0 144 21" version="1.1" xmlns="http://www.w3.org/2000/svg" xmlns:xlink="http://www.w3.org/1999/xlink">
  <g fill="#ffffff">
    <path d="M139.388,6.424 C139.388,5.115 140.449,4.154 141.7,4.154 C142.94,4.154 144,5.115 144,6.424 C144,7.74 142.94,8.705 141.7,8.705 C140.449,8.705 139.388,7.74 139.388,6.424 L139.388,6.424 Z M141.7,8.326 C142.729,8.326 143.541,7.518 143.541,6.424 C143.541,5.345 142.729,4.535 141.7,4.535 C140.659,4.535 139.847,5.345 139.847,6.424 C139.847,7.518 140.659,8.326 141.7,8.326 L141.7,8.326 Z M141.219,7.74 L140.821,7.74 L140.821,5.115 L141.821,5.115 C142.439,5.115 142.746,5.345 142.746,5.862 C142.746,6.333 142.451,6.538 142.065,6.586 L142.813,7.74 L142.369,7.74 L141.676,6.602 L141.219,6.602 L141.219,7.74 L141.219,7.74 Z M141.693,6.267 C142.028,6.267 142.331,6.241 142.331,5.838 C142.331,5.514 142.034,5.455 141.76,5.455 L141.219,5.455 L141.219,6.267 L141.693,6.267 L141.693,6.267 Z"></path>
    <path d="M20.647,4.161 L20.647,18.016 L28.446,18.016 L27.39,20.739 L17.25,20.739 L17.25,4.161 L20.647,4.161"></path>
    <path d="M81.845,9.615 L79.991,9.615 L79.991,2.553 L82.238,2.561 C85.28,2.561 86.857,3.516 86.857,6.03 C86.857,8.782 84.895,9.615 81.845,9.615 L81.845,9.615 Z M85.895,11.673 C88.074,10.825 90.597,9.021 90.597,5.863 C90.597,2.051 87.274,0.09 82.527,0.09 L76.369,0.09 L76.369,20.737 L79.991,20.737 L79.991,12.228 L82.147,12.228 L87.848,20.737 L92.01,20.737 L85.895,11.673 L85.895,11.673 Z"></path>
    <path d="M34.601,14.828 L37.098,8.708 L39.685,14.83 L34.601,14.828 L34.601,14.828 Z M34.853,4.161 L35.452,5.452 L29.02,20.737 L32.181,20.737 L33.535,17.373 L40.822,17.373 L42.286,20.737 L46.007,20.737 L38.712,4.161 L34.853,4.161 L34.853,4.161 Z"></path>
    <path d="M6.081,18.016 L3.726,18.01 L3.726,11.186 L5.869,11.186 C9.126,11.186 11.797,11.662 11.797,14.616 C11.797,17.456 9.638,18.016 6.081,18.016 L6.081,18.016 Z M5.996,2.568 C8.708,2.568 10.621,2.885 10.621,5.377 C10.621,8.67 7.251,8.491 5.565,8.491 L3.726,8.491 L3.726,2.561 L5.996,2.568 L5.996,2.568 Z M10.901,9.666 C12.728,9.092 14.452,7.717 14.452,5.135 C14.452,0.09 8.437,0.09 6.464,0.09 L0,0.09 L0,20.739 L6.218,20.739 C9.757,20.739 15.625,19.819 15.625,14.777 C15.625,11.962 13.984,10.183 10.901,9.666 L10.901,9.666 Z"></path>
    <path d="M71.33,4.146 L64.344,12.104 L71.346,20.733 L75.336,20.733 L68.197,11.868 L74.775,4.146 L71.33,4.146 L71.33,4.146 Z M60.75,4.139 L64.147,4.139 L64.147,20.74 L60.75,20.74 L60.75,4.139 Z" id="Fill-6"></path>
    <path d="M45.308,11.909 C45.308,17.35 48.61,21 53.194,21 C55.618,21 57.215,20.444 58.768,19.349 L57.97,17.682 C56.614,18.376 55.451,18.669 54.051,18.669 C51.102,18.669 48.981,16.487 48.981,11.988 C48.981,8.377 50.314,6.197 52.928,6.197 C54.28,6.197 55.429,6.736 55.916,8.143 L58.873,7.314 C58.565,6.189 57.061,3.902 52.726,3.902 C48.748,3.902 45.308,6.596 45.308,11.909"></path>
    <path d="M134.382,4.146 L127.396,12.104 L134.397,20.733 L138.389,20.733 L131.248,11.868 L137.825,4.146 L134.382,4.146 L134.382,4.146 Z M123.803,4.139 L127.198,4.139 L127.198,20.74 L123.803,20.74 L123.803,4.139 Z"></path>
    <path d="M108.25,11.909 C108.25,17.35 111.552,21 116.137,21 C118.561,21 120.158,20.444 121.71,19.349 L120.912,17.682 C119.556,18.376 118.394,18.669 116.993,18.669 C114.047,18.669 111.924,16.487 111.924,11.988 C111.924,8.377 113.258,6.197 115.872,6.197 C117.223,6.197 118.369,6.736 118.859,8.143 L121.815,7.314 C121.508,6.189 120.004,3.902 115.669,3.902 C111.691,3.902 108.25,6.596 108.25,11.909"></path>
    <path d="M99.129,18.678 C95.66,18.678 94.892,15.866 94.892,12.466 C94.892,9.064 95.678,6.107 99.129,6.107 C102.58,6.107 103.364,9.064 103.364,12.466 C103.364,15.866 102.597,18.678 99.129,18.678 L99.129,18.678 Z M99.129,3.9 C94.619,3.9 91.362,6.62 91.362,12.466 C91.362,18.291 94.484,21 99.129,21 C103.774,21 106.896,18.291 106.896,12.466 C106.896,6.62 103.638,3.9 99.129,3.9 L99.129,3.9 Z"></path>
  </g>
</svg>
