<?xml version="1.0" encoding="UTF-8" standalone="no"?>
<svg width="301px" height="61px" viewBox="0 0 301 61" version="1.1" xmlns="http://www.w3.org/2000/svg" xmlns:xlink="http://www.w3.org/1999/xlink">
    <defs>
        <path id="path-1" d="M0,0.531 L300.004,0.531 L300.004,60.94 L0,60.94"></path>
    </defs>
    <g fill="#ffffff">
        <path d="M7.897,26.399 L15.479,26.399 C21.871,26.399 24.89,28.031 24.89,32.674 C24.89,38.494 19.236,39.188 15.164,39.188 L7.897,39.188 L7.897,26.399 L7.897,26.399 Z M0,45.954 L15.98,45.954 C24.378,45.954 32.776,42.954 32.776,33.297 C32.776,27.589 28.774,23.207 23.197,22.573 L23.197,22.441 C27.76,21.074 30.907,17.751 30.907,12.735 C30.907,4.647 24.004,1.578 17.297,1.578 L0,1.578 L0,45.954 L0,45.954 Z M7.897,8.344 L14.417,8.344 C20.376,8.344 23.002,10.227 23.002,14.052 C23.002,17.376 20.376,19.633 15.105,19.633 L7.897,19.633 L7.897,8.344 L7.897,8.344 Z"></path>
        <path d="M37.956,0.531 L45.456,0.531 L45.456,45.954 L37.956,45.954 L37.956,0.531 Z"></path>
        <path d="M50.488,30.913 C50.488,40.379 57.755,46.702 66.852,46.702 C75.938,46.702 83.216,40.379 83.216,30.913 C83.216,21.447 75.939,15.115 66.852,15.115 C57.755,15.114 50.488,21.448 50.488,30.913 M58.011,30.913 C58.011,26.212 61.335,21.891 66.852,21.891 C72.369,21.891 75.683,26.213 75.683,30.913 C75.683,35.613 72.369,39.937 66.852,39.937 C61.334,39.937 58.011,35.614 58.011,30.913"></path>
        <path d="M86.608,30.913 C86.608,40.379 93.876,46.702 102.972,46.702 C112.058,46.702 119.336,40.379 119.336,30.913 C119.336,21.447 112.059,15.115 102.972,15.115 C93.875,15.114 86.608,21.448 86.608,30.913 M94.131,30.913 C94.131,26.212 97.455,21.891 102.972,21.891 C108.489,21.891 111.803,26.213 111.803,30.913 C111.803,35.613 108.489,39.937 102.972,39.937 C97.455,39.937 94.131,35.614 94.131,30.913"></path>
        <path d="M123.918,15.867 L131.067,15.867 L131.067,20.573 L131.185,20.573 C132.503,17.751 135.384,15.11 140.399,15.11 C145.041,15.11 148.247,16.924 149.81,20.691 C152.002,16.875 155.2,15.11 159.704,15.11 C167.727,15.11 170.551,20.823 170.551,28.032 L170.551,45.955 L163.028,45.955 L163.028,28.907 C163.028,25.15 161.907,21.89 157.452,21.89 C152.752,21.89 150.991,25.774 150.991,29.654 L150.991,45.954 L143.478,45.954 L143.478,28.031 C143.478,24.323 141.973,21.89 138.335,21.89 C133.388,21.89 131.441,25.514 131.441,29.531 L131.441,45.954 L123.918,45.954 L123.918,15.867"></path>
        <path d="M176.648,45.954 L183.797,45.954 L183.797,41.444 L183.915,41.444 C186.118,45.068 190.061,46.701 194.269,46.701 C203.534,46.701 209.12,39.807 209.12,30.912 C209.12,22.012 203.161,15.114 194.575,15.114 C188.939,15.114 185.92,17.74 184.357,19.697 L184.17,19.697 L184.17,0.531 L176.647,0.531 L176.647,45.954 L176.648,45.954 L176.648,45.954 Z M201.597,30.913 C201.597,35.619 198.284,39.937 192.756,39.937 C187.238,39.937 183.915,35.619 183.915,30.913 C183.915,26.212 187.238,21.88 192.756,21.88 C198.284,21.88 201.597,26.212 201.597,30.913 L201.597,30.913 Z"></path>
        <path d="M242.988,33.545 L242.988,31.479 C242.988,21.006 237.286,15.115 228.886,15.115 C219.78,15.115 212.522,21.448 212.522,30.913 C212.522,40.379 219.78,46.702 228.886,46.702 C233.636,46.702 238.1,45.012 241.601,40.693 L236.211,36.627 C234.334,38.934 231.885,40.693 228.127,40.693 C223.93,40.693 220.536,37.994 220.045,33.545 L242.988,33.545 L242.988,33.545 Z M220.045,27.904 C220.606,23.572 223.37,20.755 227.814,20.755 C232.515,20.755 235.396,23.514 235.465,27.904 L220.045,27.904 L220.045,27.904 Z"></path>
        <g>
            <mask id="mask-2" fill="white">
                <use xlink:href="#path-1"></use>
            </mask>
            <path d="M247.885,15.867 L255.409,15.867 L255.409,20.632 L255.536,20.632 C257.168,17.185 260.482,15.11 264.435,15.11 C265.379,15.11 266.254,15.302 267.129,15.557 L267.129,22.825 C265.879,22.515 264.681,22.264 263.491,22.264 C256.411,22.264 255.407,28.223 255.407,29.856 L255.407,45.955 L247.883,45.955 L247.883,15.867 L247.885,15.867" mask="url(#mask-2)"></path>
            <path d="M292.856,15.867 L292.856,20.381 L292.738,20.381 C290.536,16.742 286.583,15.11 282.383,15.11 C273.111,15.11 267.534,22.008 267.534,30.913 C267.534,39.43 273.493,46.328 282.512,46.328 C286.278,46.328 290.163,44.893 292.366,41.947 L292.473,41.947 L292.473,44.146 C292.473,50.094 290.231,54.235 282.954,54.235 C278.754,54.235 275.618,52.661 272.608,49.889 L268.104,56.043 C272.352,59.819 277.436,61 283.022,61 C294.745,61 300.004,54.098 300.004,43.26 L300.004,15.867 L292.856,15.867 L292.856,15.867 Z M283.958,21.89 C289.405,21.89 292.856,25.514 292.856,30.73 C292.856,35.736 289.473,39.562 283.897,39.562 C278.823,39.562 275.056,35.613 275.056,30.848 C275.056,25.514 278.685,21.89 283.958,21.89 L283.958,21.89 Z" mask="url(#mask-2)"></path>
        </g>
    </g>
</svg>
