<?xml version="1.0" encoding="UTF-8" standalone="no"?>
<svg width="284px" height="64px" viewBox="0 0 284 64" version="1.1" xmlns="http://www.w3.org/2000/svg" xmlns:xlink="http://www.w3.org/1999/xlink">
    <defs>
        <path id="path-1" d="M0.06,0.967 L283.291,0.967 L283.291,64 L0.06,64"></path>
    </defs>
    <g fill="#ffffff">
        <g>
            <mask id="mask-2" fill="white">
                <use xlink:href="#path-1"></use>
            </mask>
            <path d="M125.421,39.564 L106.745,39.564 L106.745,43.806 L107.325,43.747 L107.339,43.676 C107.465,43.048 108.587,41.848 109.97,41.848 L114.141,41.848 C114.141,42.043 114.144,63.614 114.144,63.614 L118.218,63.614 C118.218,63.614 118.194,42.06 118.194,41.863 L122.461,41.863 C123.87,41.863 124.794,42.638 124.951,43.363 L124.968,43.443 L125.559,43.426 L125.519,39.564 L125.421,39.564" mask="url(#mask-2)"></path>
            <path d="M4.251,38.106 C4.251,38.106 4.287,38.139 4.322,38.173 C4.287,38.139 4.251,38.106 4.251,38.106 C1.549,40.914 0,44.765 0,48.673 C0,53.023 1.754,56.977 4.941,59.806 C7.985,62.511 12.055,64 16.402,64 C18.679,64 23.144,63.613 27.452,61.018 L27.62,60.915 L28.132,54.793 L27.327,54.689 L27.208,54.939 C24.045,61.552 19.065,61.552 17.19,61.552 C8.791,61.552 4.966,54.588 4.966,48.113 C4.966,41.855 8.755,35.537 17.22,35.537 C19.816,35.537 24.536,36.385 26.992,42.064 L27.128,42.377 L27.918,42.135 L27.402,35.753 L27.192,35.663 C23.247,33.943 20.065,33.176 16.876,33.176 C11.722,33.176 7.356,34.88 4.251,38.106" mask="url(#mask-2)"></path>
        </g>
        <path d="M38.992,41.73 C43.095,41.901 43.213,45.372 43.213,45.767 C43.213,49.259 40.634,50.497 38.426,50.497 C38.426,50.497 36.991,50.468 36.823,50.464 L36.823,41.767 C37.241,41.731 38.009,41.689 38.992,41.73 L38.992,41.73 Z M32.147,39.561 L32.047,39.561 L32.055,40.117 L32.106,40.143 C32.447,40.325 32.828,41.251 32.828,42.288 L32.827,63.613 L36.828,63.613 C36.828,63.613 36.812,52.853 36.812,52.655 C36.988,52.659 38.562,52.701 38.562,52.701 C40.134,52.789 40.754,53.83 41.54,55.148 L41.637,55.31 L42.141,56.159 C42.996,57.603 44.168,59.581 45.385,61.39 C46.26,62.691 47.353,63.438 48.725,63.676 C49.704,63.846 51.659,63.779 52.396,63.552 C52.392,63.555 53.276,63.326 53.276,63.326 L53.611,63.239 L52.396,62.864 C51.906,62.713 51.134,62.375 50.096,61.177 C49.454,60.435 48.414,58.775 46.839,56.264 C46.836,56.257 45.28,53.78 45.28,53.78 C45.278,53.779 45.25,53.735 45.25,53.735 C44.833,53.126 44.135,52.139 42.962,51.511 C45.215,50.773 47.427,48.721 47.427,45.663 C47.427,44.794 47.205,43.129 45.715,41.718 C44.206,40.286 41.854,39.561 38.724,39.561 L32.147,39.561 L32.147,39.561 Z"></path>
        <path d="M77.827,41.868 C78.006,41.868 79.973,41.873 79.973,41.873 C80.544,41.881 81.986,41.917 82.999,42.071 C89.736,43.092 90.464,48.802 90.464,51.21 C90.464,53.184 90.112,55.992 88.437,58.164 C86.794,60.294 84.218,61.375 80.779,61.375 C79.959,61.375 78.938,61.372 77.827,61.322 L77.827,41.868 L77.827,41.868 Z M73.085,39.561 L72.974,39.561 L73.049,40.156 L73.096,40.181 C73.444,40.355 73.774,41.215 73.774,41.954 L73.751,63.613 L80.608,63.613 C85.135,63.613 88.882,62.205 91.443,59.54 C93.57,57.327 94.79,54.29 94.79,51.21 C94.79,49.347 94.163,46.535 92.4,44.228 C90.036,41.131 86.288,39.561 81.258,39.561 L73.085,39.561 L73.085,39.561 Z"></path>
        <path d="M103.072,39.561 L98.372,39.561 L98.387,40.143 L98.44,40.171 C98.873,40.385 99.153,41.168 99.153,42.163 L99.152,63.613 L103.164,63.613 L103.169,39.561 L103.072,39.561"></path>
        <path d="M183.885,39.561 L179.157,39.561 L179.203,40.102 L179.252,40.127 C179.677,40.34 179.965,41.158 179.965,42.163 L179.965,63.613 L183.977,63.613 L183.982,39.561 L183.885,39.561"></path>
        <path d="M67.9,39.561 L54.454,39.561 L54.53,40.126 L54.577,40.148 C54.944,40.33 55.324,41.181 55.324,42.288 L55.322,63.613 L68.749,63.613 L69.725,59.352 L69.184,59.158 L69.032,59.394 C67.921,61.143 66.793,61.375 62.897,61.375 C61.509,61.404 60.155,61.283 59.308,61.202 L59.308,51.389 L66.101,51.389 L66.101,49.219 C66.101,49.219 59.496,49.218 59.308,49.218 L59.308,41.735 C59.499,41.738 64.815,41.8 64.815,41.8 C66.056,41.8 67.42,42.988 67.54,43.705 L67.554,43.789 L68.104,43.776 L67.996,39.561 L67.9,39.561"></path>
        <g>
            <path d="M239.802,39.561 L226.398,39.561 L226.427,40.176 L226.478,40.201 C226.84,40.382 227.226,41.176 227.226,42.288 L227.223,63.613 L240.652,63.613 L241.627,59.347 L241.02,59.159 L240.87,59.394 C239.759,61.143 238.644,61.375 234.798,61.375 C233.411,61.404 232.057,61.283 231.21,61.202 L231.21,51.389 L238.002,51.389 L238.002,49.219 C238.002,49.219 231.398,49.218 231.21,49.218 L231.21,41.735 C231.403,41.738 236.716,41.8 236.716,41.8 C238.236,41.8 239.378,42.957 239.378,43.71 L239.378,43.814 L240.005,43.773 L239.898,39.561 L239.802,39.561"></path>
            <path d="M137.108,35.065 C135.693,36.081 134,37.951 133.967,41.09 L133.967,41.182 C133.967,45.042 136.426,47.068 140.388,49.08 C140.388,49.08 140.38,49.057 140.375,49.039 C140.476,49.123 140.822,49.301 141.899,49.849 C145.207,51.511 147.597,52.713 147.597,56.089 C147.597,57.247 147.16,58.919 145.932,60.132 C144.911,61.144 143.54,61.648 141.853,61.631 C136.802,61.577 135.014,57.15 134.48,55.247 L134.388,54.918 L133.54,55.059 L133.774,61.343 L133.958,61.448 C135.57,62.386 138.268,63.955 142.13,63.993 C144.867,64.022 147.642,62.905 149.556,61.011 C151.235,59.35 152.123,57.243 152.123,54.922 C152.123,49.822 148.469,47.909 144.597,45.881 L143.87,45.498 C139.904,43.507 138.039,42.296 138.063,39.796 C138.081,38.097 139.361,35.414 142.719,35.448 C146.624,35.487 148.779,38.425 149.22,40.267 L149.3,40.601 L150.141,40.492 L149.855,35.05 L149.698,34.943 C147.386,33.385 144.485,33.19 143.344,33.18 C141.08,33.157 138.807,33.844 137.108,35.065"></path>
        </g>
        <path d="M190.361,45.643 L190.361,45.643 C190.328,48.976 192.329,50.664 195.569,52.309 C195.569,52.309 196.79,52.93 196.791,52.93 C199.343,54.213 201.029,55.059 201.029,57.455 C201.029,57.872 200.944,59.322 199.83,60.423 C199.058,61.188 197.99,61.568 196.653,61.555 C192.827,61.515 191.422,58.54 190.925,56.769 L190.832,56.439 L190.023,56.573 L190.21,61.64 L190.394,61.746 C191.669,62.488 193.803,63.728 196.87,63.76 C199.044,63.783 201.252,62.897 202.774,61.389 C204.112,60.064 204.819,58.386 204.819,56.534 C204.819,52.322 201.904,50.797 198.82,49.18 C198.82,49.18 198.278,48.894 198.277,48.893 C194.962,47.23 193.807,46.481 193.824,44.626 C193.836,43.322 194.815,41.394 197.45,41.421 C200.672,41.454 202.08,43.785 202.375,45.014 L202.454,45.349 L203.264,45.243 L203.032,40.843 L202.874,40.737 C201.035,39.496 198.732,39.343 197.828,39.334 C194.24,39.297 190.404,41.497 190.361,45.643"></path>
        <path d="M208.37,45.643 C208.335,48.974 210.335,50.664 213.578,52.309 L214.798,52.93 C217.352,54.213 219.037,55.059 219.037,57.455 C219.037,57.872 218.95,59.322 217.837,60.423 C217.066,61.188 215.998,61.568 214.661,61.555 C210.835,61.515 209.431,58.54 208.933,56.769 L208.84,56.439 L208.031,56.573 L208.219,61.639 L208.403,61.746 C209.677,62.488 211.812,63.728 214.877,63.76 C217.052,63.783 219.261,62.897 220.782,61.389 C222.12,60.064 222.828,58.386 222.828,56.534 C222.828,52.322 219.915,50.797 216.828,49.18 C216.828,49.18 216.286,48.894 216.285,48.893 C212.972,47.231 211.815,46.481 211.832,44.626 C211.84,43.805 212.203,42.964 212.8,42.377 C213.45,41.74 214.37,41.409 215.458,41.421 C218.682,41.454 220.089,43.785 220.381,45.015 L220.462,45.349 L221.272,45.243 L221.041,40.843 L220.881,40.737 C219.042,39.496 216.74,39.343 215.835,39.334 C212.249,39.297 208.412,41.497 208.37,45.643"></path>
        <path d="M173.907,39.54 L170.748,39.563 L170.797,40.103 L170.845,40.127 C171.005,40.206 171.524,40.584 171.524,42.103 L171.542,55.775 C171.542,58.423 170.57,61.58 165.944,61.58 C161.573,61.58 160.675,58.967 160.675,55.04 L160.681,39.561 L155.679,39.561 L155.716,40.097 L155.765,40.122 C156.083,40.292 156.624,40.926 156.624,42.226 L156.624,55.04 C156.624,63 161.857,63.922 165.793,63.922 C167.715,63.922 173.99,63.338 173.99,55.834 L174.006,39.539 L173.907,39.54"></path>
        <path d="M274.315,32.691 C277.142,33.6 280.142,34.872 283.291,36.632 C275.565,23.872 261.745,9.973 248.186,0.967 C251.682,4.427 257.353,12.044 258.826,20.211 C264.38,24.169 269.623,28.381 274.315,32.691"></path>
        <path d="M274.306,32.687 C267.677,30.555 262.031,30.448 257.837,30.879 C259.314,27.423 259.462,23.775 258.828,20.23 C248.568,12.919 237.256,6.459 226.381,1.846 C234.361,7.25 243.158,22.836 246.849,39.555 C254.715,37.226 266.828,35.621 282.444,40.873 C279.988,38.131 277.253,35.391 274.306,32.687"></path>
    </g>
</svg>
