<svg id="Layer_1" xmlns="http://www.w3.org/2000/svg" viewBox="0 0 593.4 504.7"><style>.st0{display:none}.st0,.st1{fill:#fff}.st2{display:none}.st3{display:inline}.st4{fill:#b53204}.st5{fill:#751b00}.st6{fill:#c53c02}</style><path class="st0" d="M-343.7-191.7h1280v800h-1280z"/><path class="st1" d="M138.4 81.9c0-.8.7-1.5 1.6-1.5h7.9c.9 0 1.6.7 1.6 1.5v44.2h21.8c.9 0 1.6.7 1.6 1.5v6.5c0 .8-.7 1.5-1.6 1.5H140c-.9 0-1.6-.7-1.6-1.5V81.9zm82.8-2.3c17.1 0 30.8 12.7 30.8 28.4s-13.7 28.3-30.8 28.3-30.7-12.5-30.7-28.3c0-15.7 13.6-28.4 30.7-28.4zm0 46.5c10.8 0 19.7-8.1 19.7-18s-8.9-18.2-19.7-18.2c-10.8 0-19.6 8.3-19.6 18.2 0 9.9 8.8 18 19.6 18zm82.3-46.5c8.6 0 14.9 2.5 20.7 7.3.8.6.8 1.6.1 2.2l-5.2 5c-.6.6-1.5.6-2.1 0-3.6-2.9-8.4-4.6-13.2-4.6-11 0-19.1 8.4-19.1 18.3 0 9.8 8.2 18.2 19.2 18.2 5.1 0 9.5-1.8 13.1-4.5.7-.6 1.6-.5 2.1 0l5.3 5c.7.6.5 1.6-.1 2.1-5.8 5.2-13.2 7.6-20.8 7.6-17.1 0-30.9-12.5-30.9-28.3 0-15.6 13.8-28.3 30.9-28.3zm37.9 53.9l26.6-53c.3-.5.7-.9 1.5-.9h.9c.9 0 1.2.4 1.5.9l26.4 53c.5 1-.2 2-1.5 2h-7.5c-1.3 0-1.9-.5-2.5-1.6l-4.2-8.5H357l-4.2 8.5c-.3.8-1.1 1.6-2.5 1.6h-7.5c-1.2.1-1.9-1-1.4-2zm37-16.8l-8.6-17.3h-.3l-8.4 17.3h17.3zm41.3-34.8c0-.8.7-1.5 1.6-1.5h7.9c.9 0 1.6.7 1.6 1.5v44.2h21.8c.9 0 1.6.7 1.6 1.5v6.5c0 .8-.7 1.5-1.6 1.5h-31.3c-.9 0-1.6-.7-1.6-1.5V81.9zM224.8 343.4h-23c-1 0-1.7.8-1.7 1.7v59.1c0 .9.8 1.7 1.7 1.7h23c18.7 0 34.1-14 34.1-31.4 0-17.1-15.4-31.1-34.1-31.1zm-1.2 51.6h-11.1v-40.8h11.1c12.6 0 21.8 8.8 21.8 20.4.1 11.7-9.2 20.4-21.8 20.4zm107.4 8.6l-29.9-60.1c-.3-.5-.7-1-1.7-1h-1c-.9 0-1.4.4-1.6 1l-30.2 60.1c-.6 1.2.2 2.3 1.7 2.3h8.4c1.6 0 2.4-.9 2.8-1.8l4.8-9.6h29l4.8 9.6c.7 1.2 1.4 1.8 2.8 1.8h8.4c1.5 0 2.3-1.1 1.7-2.3zm-41.9-19l9.5-19.7h.3l9.7 19.7h-19.5zm68.2-8.8L335.2 346c-.8-1.2 0-2.6 1.6-2.6h9.9c.8 0 1.3.4 1.6.8l15.5 20.5 15.5-20.5c.3-.4.8-.8 1.6-.8h10c1.6 0 2.3 1.4 1.6 2.6l-22.4 29.7v28.5c0 .9-.9 1.7-1.8 1.7h-8.9c-1.1 0-1.8-.8-1.8-1.7v-28.4zm-228-135.4c0-4.9 0-9.8.1-14.6v-.4c0-6.8.1-13.5.1-20.3-.1 0-.1 0-.2.1 0-.4-.2-.6-.2-1 .2 0 .3-.1.3-.2 0 0 .1 0 .1.1 0-3.7 0-7.4.1-11.1v-3c0-4.9 0-9.8.1-14.7v-2.1c-.2-.2 0-.8-.3-1h.2v-8.6h-.8v.3c-.2-.1-.2-.2-.3-.3h-5.1c.1.3-.2.6.1.6-.1.1-.3.1-.5.2.1-.2-.2-.7.3-.8h-2.9c0 .2-.2.2.1.2-.1.1-.1.3-.3.2.1-.1-.1-.4.2-.5h-.2c0 .1-.1.2-.1.2-.1-.1-.1-.1-.1-.2h-5.7c.1.2.2.5 0 .5.1.4.4.4.2.9h-.5c.3-.2.4-.9-.2-1 .1-.2.3-.1.5 0 0-.2-.1-.3-.2-.4h-5.7c-.1.1-.2.2-.1.2 0 .2-.2 0-.2-.2h-4.2v.3c-.1 0-.1-.2 0-.2-.1 0-.1-.1-.2-.1h-2.9l-.1.1v-.1h-2.3c0 .1.1.3.2.3-.3.2-.5 0-.6-.2v-.1h-5.2c0 .2 0 .4.1.7-.2.2-.5.1-.7.1 0-.3-.1-.5-.1-.7h-.7v4.9c.1.1.2.2.3.2.1.2-.1.1-.3.2v2c.2.3.3.7.1 1l-.2-.2v11c0 .1.1.1.1.2h-.1v5.7c.1 0 .1-.1.2 0s.1.5 0 .6c-.1-.1-.2-.1-.2-.3v2.9c.1.2.1.4 0 .6v2.5c.1.3.2.7.1.9l-.1-.1v2.2c.3.3.3.8.3 1.2-.2 0-.3 0-.3-.1 0 6.7-.1 13.5-.1 20.2 0 0 .1.1.2.1-.2.3.1.7-.2.9v2c.1.3.5.7.2 1.1-.1 0-.2 0-.3-.1v1.8c-1.3.1-2.7.2-4 .3 0 .2-.4.1-.6.2v-.1c-.8.1-1.6.1-2.3.2-.1.2-.3.3-.6.2 0-.1 0-.1-.1-.1-.4 0-.8.1-1.2.1 0 .6.5 1.2.1 1.7-.4-.4-.4-1.1-.4-1.7-.4 0-.8.1-1.1.1h-.2c-.5 0-1 .1-1.5.1.4.2.4 1 .5 1.6-.1 0-.1-.1-.1-.2-.1.1-.1.3-.4.2-.2-.8.1-1.3-.1-1.7-.3 0-.7 0-1 .1h-.3c-.4 0-.9.1-1.3.1.2.3.4.9.4 1.5-.1.2-.4.2-.7.2.1-.6-.1-1.1-.1-1.6-.8.1-1.6.1-2.4.2.1.5 0 1.2-.1 1.7-.7-.1-.7-.9-.6-1.6-.8.1-1.6.1-2.5.2.1.5.2.9.1 1.5-.7.2-.8-1.4-.6-1.4 0 0 0-.1-.1-.1-1 .1-2 .1-2.9.2-1 .1-1.9.1-2.9.2.3.3.5 1 .2 1.4-.6 0-.6-.9-.5-1.4-1 .1-1.9.1-2.9.2.3.4.3.9.3 1.3h-.4c.1-.5-.2-.9-.1-1.3-.8.1-1.7.1-2.5.2 0 .2.1.5.4.7-.1.3-.3.4-.3.7-.2.1-.3-.4-.3 0-.1-.3-.1-.8-.2-1.2-.1.2-.2.1-.1-.1-.9.1-1.8.1-2.6.2.1.4.2.8.3 1.1-.1.1-.3.2-.5.2-.1-.5-.1-.8-.2-1.2-.9.1-1.8.1-2.8.2.1.4.1.7 0 1-.3-.1-.2-.7-.2-.8-.1 0-.2-.1-.2-.2-.8.1-1.6.1-2.4.2.1.3 0 .7 0 1-.4-.1-.4-.5-.5-.9-.8.1-1.6.1-2.4.2v-14.4c-.1 0-.1.1-.1.1-.2 0-.1-.3-.2-.2.1-.2.2-.2.4-.2v-15.3c-.1 0-.1-.1 0-.1v-.9h-.1c-.1-.4 0-.6.1-.8v-1.7c-.1 0-.2-.1-.3-.2 0-.1 0-.1.1-.1v-.2c.1 0 .1.2.2.2v-.3c-.1-.1-.2-.2-.2-.4h.2s-.2-.1-.1-.3h.1v-.6c-.1-.1-.2-.1-.3-.1 0-.1.1-.1.2-.1.1-.1.2-.2.2-.4v-1.4c-.2.1.1-.4-.1-.2 0-.2 0-.4-.1-.8h.2v-1.4h-.1c.3-.4-.7-1.3.1-1.7-.1-.2-.1-.1-.3-.1 0-.2.2-.2.4-.3v-1.4h-.1s0-.4.1-.5c-.4-.3-.4-.9-.1-1.3h.1v-1.2c-.1-.1-.2-.6-.1-.9h.1v-.1c-.1 0-.2.1-.3 0-.1-.4.2-.6.1-.9.1 0 .2-.1.2-.2v-.3c-.1 0-.2.1-.1.2-.2 0 0-.3 0-.3h.1v-1.1c-.1-.2-.3-.5-.4-.6.3-.3.3-.8 0-1.1.2.4.3-.1.4-.3v-.4c-.1 0-.3-.1-.4-.1 0-.2.3-.6.1-.7.1-.2.1-.1.3-.1 0-.1-.2-.1-.2-.4.1 0 .1 0 .2.1v-.5c-.1 0-.2-.1-.2-.1 0-.1.1-.1.2-.1 0-.1-.3 0-.3-.2 0-.1.2 0 .3-.1v-1h-.2c.1-.2.1-.5-.2-.4-.2-.3.3-.4.1-.4 0-.1.1 0 .1 0 .1 0 .2-.1.2-.2.1 0 .1.1.1.1v-2.3c-.1 0-.3-.1-.5 0 0-.9-.1-1.1-.1-1.6.6.2.3.9.5 1.5h.1v-.3c-.1 0-.1-.1-.1-.2h.1v-2.7c-.1 0-.2.1-.4.1-.1-.1 0-.2-.2-.2 0-.3.2-.2.2-.4-.2.2-.2-.5-.2-.6.4 0 .4.5.6.7v-2.4h-1.2v.1c-.2 0-.3-.1-.6-.1.4.1.3.3.1.6.2.1.2.3.3.5-.1.1-.2.3-.5.2 0-.5 0-1-.1-1.4h-1s.1 0 .1.1c-.1.2-.2.1-.3-.1h-2.8c-.1 0-.1.1-.2 0 .1.2.2-.1.3.1 0 .2-.3 0-.4.1 0-.1 0-.1-.1-.2h-2.4s0 .1.1.1c-.2.1-.2 0-.3-.1h-2.8v.4h-.3c-.1-.1 0-.3.1-.4h-2.7v.5c-.3-.1-.3-.3-.2-.5h-2.3c.1.1.1.3.1.6-.3 0-.2-.3-.2-.6h-3.1c.1.1.2.1.2.3-.1.3-.1.1 0 .4-.1-.2-.4-.4-.5-.7h-2.7c0 .1.1.2 0 .3.3-.2.3 0 .3.3-.1.3 0-.3-.2-.2-.2 0 0 .3-.1.4-.4-.1-.1-.6-.2-.8H8.3v36c.1-.2 0-.3.2-.5.2.1 0 .5-.2.5v94.1c.1-.1.3-.1.3 0s-.1.1-.1 0c0 .2-.1.2-.2.3v1h.1c0 .1-.1.2-.1.3v5s.1-.1.2-.1c0 .2 0 .1.1.2-.2.1-.2.1-.3.1v6.3h.2c0 .1-.1.2-.2.3v5c.3-.3.5-.4.9-.5.1.4-.7.6-.7 1-.1 0-.2.1-.2.1v6c.1-.1.2-.2.2-.3h.2c0 .2-.3.4-.3.7-.1 0-.1 0-.2.1v5h.2c-.1.1-.1.2-.2.3v12.2c.2-.2.4-.3.7-.5 0 .1.1.1.1.1 0 .1-.1.1-.1.1.1.1-.1.4-.2.6-.2 0-.4.1-.5.1v1l.1-.1c.1.2-.2.2.1.4h-.1v5.1c.1-.1.2 0 .4-.1-.1.1-.2.4-.4.4v5.3c.1-.2.4-.3.7-.4.1.2 0 .3-.1.5 3.1-.7 6.2-1.5 9.4-2.2-.1 0-.2 0-.3-.1 0-.4.8-.9 1.1-.8-.1.3-.5.6-.7.9 1.9-.4 3.8-.9 5.7-1.3.1-.1.2-.1.3-.2 0 0 0 .1-.1.1 1.2-.3 2.4-.5 3.6-.8-.1 0-.1 0-.1-.1.1 0 .1-.1 0-.1.1-.2.5-.4.5-.5.2.1 0 .5-.3.6 2.4-.5 4.9-1.1 7.3-1.6 1.2-.3 2.4-.5 3.7-.8 0-.2.3-.3.3-.5.1 0 .1.1.2.2-.1.1-.2.1-.2.2-.1-.1-.1 0-.2.1l6.9-1.5v-3.1c0 .1-.1.2-.3.3-.3-.1 0-.3-.2-.3 0-.3.3-.3.5-.3v-6.1c-.2 0-.4.1-.5 0 .2-.2.3-.5.6-.7v-.8c-.1 0-.1 0-.2-.1.1 0 .1-.1.2-.2v-5.5c-.2.2-.5.3-.6.7-.2.1-.2-.2-.3-.3.2-.1.6-.6.9-.7v-1.2l-.2.2c-.2 0-.2-.1-.3-.3.2-.2.3-.3.5-.4v-.7c-.1 0-.2-.1-.2-.2.1 0 .2-.1.2-.1v-3.7c-.1.1-.2.2-.1.3-.3.1-.5.2-.7.2-.1-.2.4-.4.5-.4.1 0 .1-.3 0-.3 0-.1.2-.2.4-.3v-.6c-.1 0-.2.1-.3.1-.1-.2.1-.4.3-.5v-5c-.2.2-.4.3-.6.5.1-.1 0-.3-.2-.5.2-.1.5-.2.5-.4 0 .2.1.1.2.1.1-.1-.1 0 0-.2.1 0 .1-.1.2-.1v-.5c-.2 0-.4 0-.5-.2l.5-.5V306c-.3.1-.8.4-.9.7-.3 0-.1-.2-.1-.3-.2.3-.2-.4 0-.4 0 .1.1.1.1.2.1-.3.4-.5.7-.7.2.3 0 .4.1.6v-1.3c0 .1-.1.2-.1.3 0-.2-.3-.2-.3 0-.6-.4.2-.5.5-.9v-.7c-.1 0-.1 0-.2.1-.1-.1-.2-.3-.2-.4.1 0 .2-.1.3-.1v-3.7c-.2.2-.5.3-.7.5.4.1-.1.3-.2-.1.2-.1.5-.4.6-.6.2-.1.3.1.4 0v-1c-.2.1-.4.2-.5.3-.1-.1-.1-.2-.2-.4.3.1.5-.2.7-.4v-.8c-.1 0-.1-.1-.2-.3.1 0 0-.1 0-.1.1 0 .2-.1.2 0v-2.3l-.1-.1c-.3.3-.8.7-1.1 1.1-.2.1-.4-.4-.1-.5.3-.2.3-.3.5-.3-.2-.3.2 0 .3-.1 0 0 .1-.2 0-.2.1-.1.3 0 .5-.1v-2.1c-.1 0-.2.1-.2.1-.1-.2-.2-.1-.2-.3.2-.1.3-.2.4-.2V287l-.3.3v-.2c-.2.1 0 .2 0 .3-.1 0-.2-.2-.3-.1-.2-.6.6-.5.6-1h.1v-.7c-.1.1-.3.2-.4.2-.1-.2-.1-.3-.1-.4.1-.1.4-.1.5-.2V283s-.1.1-.2.1c0-.1.3-.2.1-.4h.1v-2.2c-.1.2-.4.3-.6.3-.1-.1 0-.2 0-.3.1-.1.1.1.3.1.1-.1 0-.2 0-.3.1.1.2 0 .4 0v-.9h-.1c-.1-.1-.2-.2-.3-.2 0-.2.1-.3.3-.4-.1.1 0 .1 0 .1v-1.1c0-.1-.1-.1-.1-.2h.1v-3.4c-.3 0-.3 0-.6.3 0-.2-.1-.3.1-.5.1.3.3 0 .2-.1.1 0 .2.2.3.3v-.2c-.1 0-.2-.2-.2-.3.1 0 .1.1.2.1v-1c-.1.1-.2 0-.2.1-.1-.1 0-.2.1-.3 0 .1.1.1.1.2V270c.2 0 .5-.1.7-.1l-.1-.1c.1 0 .1-.1.2-.1 0 .2.2.1.2.2.6-.1 1.2-.1 1.8-.2h.1c1.7-.2 3.3-.4 5-.6.1 0 .2-.1.3-.2 0 .1-.1.1-.1.2 1.6-.2 3.1-.4 4.7-.6.2-.1.3-.1.6-.3.2-.1-.3.2 0 .2 5.6-.7 11.2-1.3 16.8-1.9-.1-.4 0-1.2.1-1.3.4.1.4.6.6.8 0 .2-.1.3-.1.4.9-.1 1.7-.2 2.6-.3 0-.1 0-.3.1-.4.2 0 .3.2.3.4 3.7-.4 7.4-.8 11.2-1.2v5.5c.1.3-.1.6.2 1-.1 0-.1 0-.2.1v2.2h.2c0 .3 0 1.2-.1 1.5-.1 0-.1-.1-.1-.1v2.9c.1 0 .2 0 .2-.1.1.1 0 .2-.1.2.1.2.2-.1.3 0 0 .1 0 .1.1.2 0 .3-.2.2-.2.4-.2 0 0-.3.1-.2-.1-.1-.3 0-.4-.2v11.4l.1-.1c.1.1 0 .2-.1.3v6.1c.1-.1.3-.1.5-.3-.1.2-.3.4-.5.4 0 4.7 0 9.4-.1 14.1h.2c0 .1-.1.1-.2.2v7.3c.1-.1.2-.1.3-.1.1.2-.4.2-.2.3h-.1v5c.2-.1.4-.1.6-.3.2.3-.4.4-.5.3-.1.2.2.2 0 .3-.1 0-.1-.1-.1-.1v1.4h.1c.1.1 0 .1-.1.2v6.1s.1.1.1.2c.1-.2.2-.2.3-.3.1.2-.1.2-.2.1-.1.1.2 0 .2.2-.2.1-.2.2-.3.2.1 0 .2.1.2.3-.1 0-.2-.1-.2-.3v1.9c2.1-.4 4.2-.7 6.3-1-.2 0-.3-.1-.4-.4.3-.2.7 0 .5-.4.2-.2.5-.1.4 0-.1.2-.1 0-.2 0-.1.2.1.2.1.4-.1 0-.3.2-.4.3.4-.1.8-.1 1.3-.2.1-.1.1-.2.3-.3v.2c10.1-1.7 20.2-3.3 30.3-4.8.1-28.4.3-56.9.4-85.4-.8-.7-.8-.9-.7-1.1zm418.4 24.5c.1 0 .1 0 0 0-.3-.9-.7-1.7-1.1-2.5-.1.1-.2.2-.4.3-.1-.1.1-.4-.1-.3 0-.2.2-.3.3-.4-.4-.9-.8-1.7-1.2-2.6 0 .2-.3.4-.5.4 0-.1.1-.1.2-.2 0-.1-.1-.1-.1 0 .1-.1.2-.2.4-.2-.1-.1-.1-.3-.2-.4 4-2.7 7.4-5.7 10.4-9 0-.1 0-.1.1-.2h.1c1-1.1 2-2.3 2.8-3.5-.2-.2-.3-.4-.4-.7.2 0 .3.3.4-.1.1.1.1 0 .3.2.2-.1.1-.2.4-.3-.1-.2-.3.2-.3-.1l.6-.3c0 .1-.1.1-.1.2v.1c2.5-3.5 4.6-7.3 6.2-11.3l-.1-.1h-.1c0-.1.1-.1.1 0l.2-.2c.2-.5.4-1.1.6-1.6 0-.1 0-.1.1-.2 0-.1.1-.2.1-.3-.2.1-.5.3-.6.5-.1-.1-.2-.3-.2-.4.4 0 .3-.2.7-.5.1.2.3 0 .3.1 3.4-9.3 5.1-19.6 5.8-30.5l-.2-.2c0-.1.1-.1.2-.1.2-3.3.4-6.6.5-10-.2.1-.4 0-.4-.2 0-.1.2-.2.1-.3.2.1.2.1.3.1.1-3.9.1-7.9.2-12-.1 0-.1-.1-.1-.2h.1v-5.1c-.1.1-.2 0-.3-.2.1-.1.2-.1.3-.1v-5.4h-14c-.1.1-.2.1-.3 0h-2c0 .1.1 0 .2 0 .1.3-.1.2-.3 0h-5.6c0 .1-.5.4-.2.6-.2.1-.4.2-.6.4-.1-.1-.1-.2-.2-.3.2-.1.4-.2.2-.4.3-.2.5-.2.8-.3h-2.4c-.2.1-.4.1-.5.2v-.2h-1.9s0 .1.1.1c-.1 0-.2-.1-.2-.1h-5.8c-.2.2-.5.4-.8.6 0-.2.2-.4.4-.6h-3.8c-.2.1-.5.2-.7.2 0-.1-.1-.1-.1-.2h-.5v3.5c.1-.2.2-.3.3-.5.1.1 0 .2-.1.2.1.2.2.1.3.4-.1 0-.4.1-.5.2v1.2c.1 0 .2 0 .3.1-.1.1-.3.2-.3.3v6.6c.2-.2.4-.2.4-.5.3-.1.5.1.8 0 0 .1-.2.1-.1.3-.1-.1-.2-.1-.4-.2-.2.2.2.2.2.3-.2.2-.8.3-.5.5.3 0-.1.1-.2.1-.1-.1-.1-.2-.2-.3v1.4c.1-.1.3-.3.4-.5.1.5.6-.1.7.3-.1 0-.4-.2-.3.1-.1-.1-.3 0-.4-.2-.1.1-.2.6-.1.6 0 .2-.5 0-.3.3h-.1v1c0 .1.1.1.1.2-.1 0-.1.1-.1.1v1.8c0 .9 0 1.9-.1 2.8 0 0 0-.1.1-.1.1.1.2.1.4.2.1-.1 0-.2-.1-.3.2-.2.3-.1.5-.2-.1 0-.2 0-.3-.1.2-.1.3-.1.5-.1 0 .2-.1.5-.1.7-.1 0-.2-.1-.3-.1 0 .1-.3.6-.6.3-.1.2.3.2 0 .4 0-.3-.1-.1-.2 0v1.1c.1 0 .2 0 .3-.2.2.4.5.3.7.1 0 .5-.7.5-.7 1-.1 0-.3 0-.4.1v1c.4-.1.5 0 .9-.3.1.3-.4.5-.7.5.1.3 0 .5-.2.7 0 .4 0 .8-.1 1.1h.1c0 .1 0 .2-.1.3-.1 1.1-.2 2.3-.3 3.4 0 0 .1 0 .2-.1.1.2.2.3.3.5-.2 0-.3-.2-.5-.3-.2 1.8-.4 3.6-.6 5.3.1-.1.1-.2.2-.2.1.1.7-.2.7-.5.3-.1.1.3 0 .5.2.1.2-.3.4 0-.5.2-.1.4-.7.7-.2 0-.1-.1-.1-.2-.3.2 0 .5-.3.7-.1-.1-.1-.2-.2-.3-.1.6-.2 1.1-.3 1.7.5-.4 1-1.3 1.1-.6-.2.4-.5.8-1 1.1 0-.1-.1-.2-.1-.2l-.9 3.9c.4-.2.5-.4.9-.7.1.1-.1.4.2.3-.2.4-.6.6-1 .7.4.2-.2 0 0 .3-.1 0-.1 0-.2-.1-.1.5-.3 1-.4 1.5l.1-.1c.1.2-.2.4-.1.6-.1 0-.1-.1-.1-.2-.1.5-.3 1-.5 1.4-.4 1.2-.9 2.3-1.4 3.4h.2c.3.4-.2.4-.3.6 0-.1-.1-.1-.2-.1-.1.1-.1.3-.2.4v.1h-.1c-.3.5-.6 1.1-.9 1.6l.3-.3c.1.6-.3 1.2-1 1.4-.6.9-1.2 1.8-2 2.6.1-.1.2-.1.3-.2 0 .1-.1.2 0 .2-.5.3-.8 1.2-1.3 1.3h-.1c-1.3 1.3-2.8 2.5-4.5 3.5-.1.1-.2.2-.2.3h-.2c-.6.4-1.3.7-2 1h-.1c-.1 0-.2.1-.3.2h.1c-.1.2-.6 1-.9.4.2 0 .3-.1.4-.2-1.4.6-2.9 1-4.6 1.4 0 .2-.3.4-.4.5-.1-.1-.1-.2-.2-.3 0 0 .1 0 .1-.1-.5.1-1.1.2-1.6.3-.1.1-.2.2-.4.3-.1-.1-.1-.1-.1-.2-1.1.2-2.3.3-3.6.3-.2.2-.5.4-.8.5 0 .2-.5.6-.7.2.3-.1.6-.4.9-.7-.8 0-1.6.1-2.4 0-.3.2-.5-.2-.6.2-.1 0-.1-.1-.2-.1l-.1-.1c-.6 0-1.2 0-1.8-.1-.1.1-.2.1-.3.1v-.1h-.5c-.9-.1-1.8-.1-2.7-.2v-3.1c-.2.3-.5.6-.6.8-.2.1-.3-.3-.5-.5.5-.3.7-.7 1.1-.9v-1.1c-.1 0-.2.1-.3.1 0-.2.1-.4.3-.6v-6.7h-.2c.1.3-.5.8-.7.2.3-.2.7-.5 1-.9v-.7h-.1c-.2-.2-.3-.4-.4-.7.2 0 .3-.1.5-.3V213c-.5.2-1.1.9-1.9 1.4-.2-.2-.2-.3-.3-.6.5-.3 1.7-1.7 2.2-1v-2c-.4.3-.4 1.1-1.3 1 .1-.7.7-1 1.3-1.4v-1.1c-.2.2-.4.4-.6.7-.1-.2-.3-.1-.5-.3.3-.4.7-.7 1.1-.9v-.9c-.3-.1-.4-.3-.4-.6.2 0 .3-.1.4-.2v-6.4h-.3c0 .3-.1.3-.4.4-.5-.8.1-.9.7-1.2v-1.3c-.1 0-.2.1-.3 0l-.3-.6c.2-.1.4-.2.6-.4v-4.8h-.1l.1-.1v-1.6c-.2.1-.2.3-.2.5-.1 0-.1 0 0-.1-.2-.2-.5.6-.9.2-.1-.6.7-.6 1.1-1v-.9c-.1.1-.1.2-.2.3 0-.5-.4.1-.5-.4.3-.1.5-.4.8-.7v-1.1c-.1-.2-.3-.4-.3-.6.1 0 .2-.1.3-.1v-3c-.1 0-.2-.2-.3-.1-.2.5-.7 1.2-1.5 1.3-.1-.2.1-.3 0-.5.6-.6 1.3-.9 1.8-1.2v-.9c-.2.3-.5.5-.8.5l-.3-.6c.3-.2.7-.5.8-.7.1 0 .2 0 .3.1v-.8s0 .1-.1.1c-.3-.3-.6-.4-.6-.8.3.1.5-.1.7-.3v-1.4h-.1l.1-.1v-3.5c-.1.1-.3.1-.3-.1.1-.1.2-.1.3-.1v-1.5c-.3.3-.7.6-.9.9-.2 0-.3-.2-.4-.3.3.1.2-.2.4-.4.1 0 .1.1.1.2.1-.2.2-.3.1-.6l.6-.3v-.8c-.1.1-.2.1-.4.2-.1-.1-.1-.2-.2-.3.2-.1.2-.2.2-.4h.4V170c0-.1-.1-.2-.1-.2h.1v-3.2h-.1c-.4.3-.9.6-.9 1.1-.2.1-.6-.1-.3.3-.3-.1-.3-.6-.4-.8.4.1.5-.4.8-.6h-1.9c-.2.2-.5.4-.6.5-.3-.1 0-.3.2-.5h-2.2l-.3.3c0-.1-.1-.1-.2-.1 0-.1 0-.1.1-.2h-1.7c0 .1-.1.1-.2.2 0-.1 0-.1-.1-.2h-9.3s-.1 0-.1.1v-.1H466c0 .1-.1.1-.2.1v-.1h-6.9c0 8.3.1 16.6.1 25 .2-.1.3 0 .5-.1.1.2-.3.4-.4.3.1.2.1.3-.1.5v8.5h.1c.1-.1-.2-.1-.1-.3.1 0 .1.1.2.1.1-.1.1-.2 0-.2.1-.1.3-.2.6-.2s-.1.1-.2 0c-.1.1 0 .2 0 .4-.3 0-.4.1-.3.4-.1 0-.2-.1-.3-.1v6.9s.1 0 .2-.1c0 .1 0 .2.1.4 0 0-.2 0-.3.1v1.9s.1.1.1.2h-.1v6.7c0 .1.1.2.2.3h-.1v8.9c.3-.1 0-.3.2-.3.2-.1.5.2.6-.2 0 .2-.4.7-.7.9-.1-.2.1-.2-.1-.4 0 3.7 0 7.4.1 11.2h.2c-.1.1-.1.2-.2.3 0 5.5.1 11 .1 16.5.1 0 .1-.1.2-.2.1.1 0 .5.2.5-.1.2-.3.2-.4.3.1 11.1.1 22.2.2 33.4 0 .1-.1.3.1.2 0 .1-.1 0-.1.1 0 3.7 0 7.5.1 11.2h.1c.1.4-.2.6 0 .7 0 0-.1 0-.1.1v1c.1.1 0 .4 0 .3v.1h-.1v.1c.1.1 0 .2.2.2-.1.1-.1.1-.2.1v1.2s0-.1.1-.1c.3.2.1.3.2.7h-.3v1.1c.1 0 .1-.1.2 0v.3c0 .1-.2 0-.2.1s.1-.1.2 0c0 .1 0 .2.1.2 0 .2-.3.1-.4.1 0-.1.2 0 .2-.1s-.2 0-.2-.1v4.7c.1.1 0 .2 0 .4v1.7s0 .1.1.1h-.1v1.3c0 .2.1.3 0 .4 0 4 0 7.9.1 11.9.1 0 .1 0 .2.1 0 .1-.1.2-.2.2v1.3c.1.1.2.3 0 .4.1 0 .1.3.2.3-.1.1-.1.1-.2.1v.3c3.3.5 6.7 1 10 1.5v-.1c.1 0 .1.1.2.1.5.1 1.1.2 1.6.2 0-.1 0-.2-.1-.2.1-.1.1-.1.2-.1v.4c2 .3 4.1.6 6.1.9-.1-.1.1-.2-.1-.2.1-.3.4-.3.5 0 0 .2-.2.2-.4.2.9.1 1.9.3 2.8.4 0-.1.1 0 .2 0 1.4.2 2.8.4 4.1.7 0-.1.1-.2.2-.2v.2c4.1.7 8.2 1.3 12.3 2l-.3-64.1c4.8.5 9.4 1 14.3.6 10.8 23.2 21.5 47.2 32.1 72.2 13.7 2.8 27.4 5.8 41 9.1v-7.4c-12-27.8-24.1-54.3-36.2-79.7 0 0-.1-.3-.3-.5zM279 283c-.1 0-.5-1-.5-1-.6-1.2-1.1-2.4-1.7-3.7l-.1-.1c-.9-2-27.3-60.2-28.6-62.9h-.4c.1-.1.2-.2.2-.3-1.7-3.7-3.4-7.5-5-11.2-.1-.1-.2-.1-.1-.3-1.8-4-3.6-8-5.4-12.1-.1-.1-.1-.1-.1-.3-.6-1.4-1.3-2.8-1.9-4.2-.1.2-.1-.2 0-.1-3.3-7.4-6.6-14.4-9.9-22.4h-7.4c.1 0 .2.4.1.5 0-.2 0-.3-.2-.4l.1-.1h-8.7c-1.8 4-3.6 8.2-5.4 12.2l.5.2c0 .1.1.3.1.4 0 .3-.7.6-.8.9 0 .1-.1.1 0 0 0 .1 0 .2-.2.2 0 0-.1-.1-.2-.1l-1.5 3.3v.1s-.1 0-.1.1c0 0 0 .1 0 0 0 .1 0 0-.1.1-.7 1.6-1.4 3.2-2.1 4.7v.1h-.1c-.1.3-.2.5-.3.8.1.1.1.1.1.2-.2 0 0 .2-.1.2h-.1v-.1c-.1.2-.2.5-.3.7.1.1.2.2.3.4-.1 0-.1.1-.2.1 0-.2-.1-.1-.2-.2-.5 1.2-1.1 2.4-1.6 3.7l.2.2c0 .1-.2.1-.2.2 0-.1 0-.1-.1-.2-.1.3-.2.5-.4.8.3 0 .3.3.4.6-.3 0-.4-.3-.4-.5l-2.1 4.8c.1.1.2.3.2.5-.1 0-.2-.2-.3-.3-.1.3-.3.6-.4.9.1.1.2.2.3.2-.1 0 0 .2-.1.2l-.3-.3c-.1.2-.2.5-.3.7 0 0 .1 0 .1.1h-.1c-.3.6-.5 1.2-.8 1.7l.1.1h-.1v.1h-.1c-.1.2-.2.5-.3.7h.1c0 .1.1.3.3.2.1.3-.5.5-.4.5-.1 0-.1-.1-.2-.1l-.3.6c.1.4.2.3.4.6-.1 0-.1.1-.2.2 0-.2-.1-.2-.2-.2 0-.2 0-.3-.1-.3-.1.3-.2.5-.3.8h.1c.1.1 0 .2-.1.2 0-.1-.1-.1-.1-.1-.4 1-.8 1.9-1.3 2.9.1.1.1.2 0 .4-.1 0-.1 0-.1-.1-.1.3-.3.6-.4.9.1.1.2.1.2.3.1.1.2-.2.3 0-.2.1-.3.2-.5.3 0-.1 0-.2-.1-.2-.1.3-.2.5-.3.8.2.1.4.2.2.4.1 0 .2.2.4.1 0 .1-.1.1-.2.2-.1-.2-.3-.4-.5-.6-.5 1.2-1.1 2.4-1.6 3.6.1.2.3.4.3.5-.2.3-.3 0-.4-.2l-.3.6v.1c.1.2.3-.2.4.1-.1-.1-.1 0-.2 0 .1 0 .2.2.2.3 0 0 .1-.1 0-.1.2 0 0 .2-.1.2.1.1.1-.1.2-.1.3.4-.3.5-.6.7-.1 0-.2-.2-.4-.1.1-.1 0-.2 0-.3 0 .1-.1.3-.1.3.1 0 0 .2 0 .3h-.1l-1.2 2.7h.1c-.1 0-.2.1-.2.1v.1c0 .1 0 .1-.1.2l-.3.6c.2.1.2.4.3.6-.3.1-.3-.1-.5-.1-.1.2-.2.5-.3.7h.1c.2.4.5.5.6.9-.1.1-.2.1-.3.1-.1-.2-.3-.5-.5-.8-.4.9-.8 1.8-1.2 2.8 0 .1.1.1.1.2s-.1.1-.2.1c-.1.3-.3.6-.4 1 .1.1.2.3.3.4-.2.1-.3 0-.4-.1-.1.2-.2.5-.3.7.1.1.3.2.4.4-.1 0 0 .1 0 .2-.1 0-.1.1-.2.1-.1-.1-.2-.2-.4-.3-.6 1.3-1.1 2.6-1.7 3.8v.1h-.1c-.1.3-.3.7-.4 1 .1.1.2.2.3.4-.1 0-.2.1-.3.1-.1 0-.1-.1-.2-.2-.1.2-.2.5-.3.7.2.2.5.5.4.7-.1-.2-.3-.4-.4-.6-.1.3-.3.6-.4.9.2.3.5.4.7.8 0 .1 0 .1-.1.2-.2-.3-.7-.4-.6-.8 0-.1-.1-.1-.1-.1-.4.9-.8 1.8-1.2 2.8.1.1.2.3.1.4-.1 0-.2 0-.3-.1-.1.3-.2.6-.4.9.1.1.1.3.3.5-.1 0-.2-.1-.4-.2-.1.3-.2.6-.4.8.1.1.4.3.4.6-.3 0-.4-.3-.5-.4-.2.4-.3.7-.5 1.1.2.1.3.5.5.6-.3.2-.6-.3-.5-.6-.4 1-.8 2-1.3 3 .1.1.1.3.3.4 0 .1-.1.1-.1.1-.1-.1-.1-.2-.1-.4h-.1c-.2.4-.3.7-.5 1.1 0 0 .1-.1.2-.1.2.1.3.3.4.4 0 .1-.3-.1-.1.2 0 .1-.2-.1-.2 0-.1 0-.2-.2-.3-.4-.4.9-.8 1.9-1.2 2.9v.1c-10 23.3-20 47-30 71.3v5.9c12.2-1.4 24.4-2.7 36.6-3.9l8.7-20.1c9.3-.7 18.7-1.3 28-1.8-.1 0-.1-.1-.3 0-.1-.2.1-.2.1-.4.3-.1.1.3.3.3 0 .1 0 .1-.1.1 3.3-.2 6.6-.4 9.9-.5.1-.1.2-.2.2-.3.2 0 .2.2.2.3.5 0 .9 0 1.4-.1.1-.4-.1-.7 0-1.3.2.1.2.3.4.3-.2.4.1.7-.2 1 .4 0 .7 0 1.1-.1 0-.2.1-.5.2-.6.1.1.1.4.1.6 2.9-.1 5.9-.3 8.8-.4 0-.1 0-.1-.1-.2.2-.1.3 0 .4.2.9 0 1.8-.1 2.7-.1v-.2c.1 0 .1.1.2.2.5 0 1 0 1.5-.1.1-.3-.2-.2-.2-.5.3 0 0-.3.2-.4-.2 0-.3-.6-.1-.9.3 0 .4.6.2.7 0 .2.3 0 .4.1-.1.3 0 .5 0 .9h.9v-.2c.1 0 .2 0 .2.1.5 0 .9 0 1.4-.1.6 1.2 1.1 2.4 1.7 3.7v-.1c.8.2.7-1.3.6 2.7h-.1c.8 0 1.6 2.7 2.4 4.5 0-.2 0-.6.1-.8.2.4.6.9.6 1.3 0 .2-.1.1-.2 0 1.1 2.5 2.3 4.9 3.4 7.3.5 0 1 .2 1.6.2-.2-.2-.3-.5-.4-.5h.5v.4c.9 0 1.9-.1 2.8-.2v-.2c.1.1.2.1.2-.2.1.1.1.2.2.4.9 0 1.7-.1 2.6-.1v-.3c.1-.1.2 0 .2-.2.1 0 .1 0 .1.1s.1 0 .1 0c.1.1.1.2.1.4.8 0 1.7-.1 2.5-.1-.2-.5-.2-1.2.4-1.3-.3.4.1.8.3 1.3.8 0 1.6 0 2.4-.1-.1-.3-.1-.7 0-.8.1-.1.1 0 .3-.1-.1.3.1.6.2.9.8 0 1.7-.1 2.5-.1 0-.3.1-.6.1-.8.3.1.4.4.4.8.9 0 1.7 0 2.6-.1 0-.3.1-.6.2-.7.3.1.4.4.4.7h2.7c-.1-.4-.1-.8-.1-.8 0-.6.3.5.5.7h2.8c-.2-.3-.2-.4-.2-.7.4 0 .3.6.2.7 1.1 0 2.2 0 3.2-.1 0-.4-.2-.5-.3-.8-.1-.3.2-.2.2-.5.6-.1.6.8.6.7 0 .1.3.3.2.5h2.6c-.2-.2-.1-.8-.2-.9.3-.2 1.3.6 1.1.9 1.3 0 .6-.1 4.6-.1v-5.5c.1.3-13.1-25.8-13.5-26.8zm-79.5-95.2c0-.1.1-.1 0-.2 0 .1.1.1.1.2s0 0-.1 0zm34.4 78.6c-.2 0-29.2.3-33.3.5l.9-2.1c-.2 0-.3-.1-.2-.3.1 0 .1 0 .1.1s.1.1.2 0c2.2-5.3 4.3-10.6 6.5-15.8v-.1h.1c.2-.5.5-1 .7-1.5-.1 0 0 0 0 0v1.1h-.1c.6-4 1.2-3.7 1.9-5.2-.1 0-.1-.5 0-.6 0 .1 0-.1.1 0 .3-.7.6-1.6.9-2.3 0-.1 0-.2-.1-.2.1-.2.2-.1.2 0 .4-1 .8-2 1.3-3.1 0-.1-.1-.2-.1-.3h.2c.1-.3.2-.6.4-.9-.1 0-.1-.2-.2-.3.1 0 .2.1.2.2.7-1.6 1.3-3.3 2-4.9.1-.2-.4-.8-.1-.6.1 0 .2.1.3.1.6-1.3 1.1-2.7 1.7-4 0 .1 1 2.4 1.5 3.5.1-.1 4.5 10.6 4.6 10.6 0 0 1.5 3.2 1.4 3.3l1.6 3.7v.1c.8 2 1.7 3.9 2.5 5.9 0-.1 0-.2.1-.2s.1 0 .2.1v-.1s.1 0 .1.1c.1.1 0 .5 0 .7-.1 0-.1-.1-.2-.2l.3.6h.1v.4c0 .7 4.5 11.4 4.2 11.7zm183.8-4.2c-.1.2-.2.5-.3.7-1.6.4-3.4.5-5.2.1-6.3-1.7-13.9 8.2-10.6 13.8.9 1.5 1.6 3.1 1.5 4.9-2.5 2.6-9.7 6.6-13.8 7.8-1.4-.8-2.6-2.2-3.4-3.6-.9-1.6-2.7-2.5-4.8-2.9-2.7.8-5.7 1.2-8.8 1.3-1.9.9-3.3 2.3-3.8 4-.4 1.7-1.2 3.3-2.5 4.5-1.3 0-3.1-.2-4.9-.7v.1c-.1 0-.2 0-.2-.1-3.5-.8-7.3-2.2-9.8-3.2-.3-1.8-.5-3.6-.1-5.3.1-.4.2-.9.2-1.3 0 .1-.2.1-.2.3-.2-.1.2-.7-.2-.7.1-.2.3.1.3.2 0-1.1-.3-2.2-.8-3.3h-.1v-.1c-.2-.4-.5-.8-.8-1.3-1.6-1.2-3.1-2.4-4.5-3.8-2.7-1.5-5.8-2-7.9-.7-.9.5-1.9.9-2.9 1.1 0 .2-.3.5-.3.6-.2 0-.1-.3 0-.6-.5.1-1.1.1-1.6.1h-.4c-.3-.4-.7-.9-1.1-1.4h-.3c.1-.2-.1-.4-.2-.5v-.2c-2.4-3.4-5.1-8.4-5.9-10.9.6-1.6 1.8-2.8 3.3-3.7 0-.1 0-.2.1-.3h.2c0 .1-.1.1-.2.1 0 0 0 .1.1.1s.1-.1.2-.1c.2-.1.4-.3.6-.5 0-.1-.1-.3-.1-.5.2.2.2-.2.3-.3.1 0 .2.2.3.4.4-.3.7-.7 1-1.1-.1-.2.1-.5.1-.6.1.1.1.2.2.2 0-.1.1-.1.1-.2-.1-.1-.1-.1-.1-.3.1 0 .2 0 .2.1 1.6-2.9 1.8-6.9.3-10-.2 0-.2.2-.4.2.2-.3-.1-.1-.2-.2 0-.2.2-.3.3-.4 0 0 0-.1-.1-.1 0 .1-.1.1-.1.2-.3 0 .1-.4-.1-.4-1-1.6-2.5-2.9-4.5-3.5h-.1l-.1-.1c-.1 0-.1-.1-.2-.1-1.9-.5-4.2-2.1-4.6-2.9 0-.3.1-.6.1-1v-.2c.1-.4.1-.9.2-1.5h-.1.1c.2-1 .4-2.1.7-3.2-.1 0-.1-.8.2-.7.6-2.2 1.2-4.5 1.8-6.2v-.2h.1c.2-.5.4-.9.5-1.3 1.7-.7 3.7-.8 5.7-.3 2.1.5 4.3-.4 6.2-2 .5-1.1 1.1-2.2 1.7-3.3-.1.1-.2.1-.3.1 0-.1-.1-.1-.1-.2.1-.2.3-.1.3-.2.1 0 .1 0 .2.1.1-.1 0-.2 0-.3.2 0 .1 0 .2-.1v.1c.5-.9 1.1-1.7 1.7-2.6.1 0 .1-.1.2-.1.3-.4.6-.8 1-1.2.1-.7.2-1.4.2-2-.2.2-.3.3-.1.6-.2-.1-.4-.1-.5-.4.2-.1.1 0 .3-.1.1-.1.1-.4-.1-.2 0-.2.2-.2.3-.3-.1-.6-.2-1.2-.5-1.7-.2-.4-.4-.7-.5-1.1-.1 0-.2.1-.3.1-.1-.1.1-.2 0-.3h.2c-.3-1.1-.4-2.2-.6-3.3-.1.1-.2.1-.3.2-.1 0-.1-.1-.2-.2 0-.2.3 0 .2-.2.1-.1.2-.1.3-.1v-.3c1.4-1.2 3.8-2.7 6.3-4.2l.2-.2c.4-.2.9-.5 1.3-.7-.1-.2.6-.6.7-.7 0 .2-.1.3-.3.5 1.9-1 3.6-1.8 4.9-2.2.6.2 1.2.7 1.9 1.3.2-.2.3-.4.5-.4.1.2-.3.2-.1.4-.1 0-.2.1-.3.2.5.4.9 1 1.3 1.5h.1v.1c.1.2.3.4.4.6.2.4.6.7.9 1.1l.2-.2c-.1 0-.2.1-.2.2.3.2.5.4.8.6.4-.1.6-.5.9-.7.1.4-.3.7-.6.9.1 0 .1.1.2.1 1.3-.3 2.6-.6 4-.7 0 0 0-.1.1-.1l.1.1c.2 0 .4 0 .6-.1-.1 0-.2-.2-.2-.3.1-.1.3-.2.3-.1.1-.1-.1-.1-.1-.2.1-.1.2 0 .2-.1-.1.3.1.1.2 0 .1.2 0 .4.3.2 0 .2-.2.2-.3.3-.1-.1 0-.1 0-.2-.1.1-.1.1-.1.3-.1-.1-.3-.2-.3.1.6-.1 1.2-.1 1.8-.1.1-.2.3-.3.6-.5-.1.3-.4.1 0 .4-.1 0-.2.1-.3.1h1.5v-.1c.1 0 .2 0 .2.1h.9c1 0 2.1.1 3 .1.4-.3.7-.5 1-.8-.2.1-.4.1-.6.2-.1-.1 0-.2-.1-.3.2.1.3-.1.4-.2 0 .1.1 0 .2 0v.1c.2-.2-.2-.3-.1-.5.1-.1.2.1.3 0 0 .2-.2-.1-.3.1.1-.1.2.2.3.2 0 .1-.1.2-.1.2.6-.7 1.1-1.4 1.4-2.3.2-.7.5-1.5.9-2.1-.1 0-.1-.3.1-.3 0 0 0 .1.1.1l.1-.1v-.1c.5-.8 1.1-1.5 1.7-1.9 5 .5 11.8 2.5 14.6 3.9.4 1.3.6 3.5.2 5.3-1.5 5.8 8.8 13.5 13.8 10.6 1.6-.9 3.3-1.3 5-1.2 2.2 2.6 5.9 8.4 7.3 12.7 6.4.2 12.7.5 19.5.8-5.8-41.9-37.8-59.3-67.7-59.7.1.3-.5.4-.6.7-.2 0 0-.2-.2-.4.2 0 .6-.3.8-.3H368c-1.3 0-2.6 0-3.9.1v.1c-.1 0-.1-.1-.2-.1-1 .1-2 .1-2.9.2 0 .1 0 .1.1.2-.3.2-.3.3-.6.4-.1 0-.1-.1-.2-.2.3-.1.3-.2.4-.4-.5 0-1 .1-1.6.2l.1.1h-.4c-.4 0-.8.1-1.2.1v.1h-.2c-1 .1-2 .3-3 .5.1.1 0 .3.2.3-.4.3-.6.2-.9.4-.1-.1-.2-.3-.2-.4.1-.1.1-.1.2-.1-.9.2-1.8.3-2.7.5-.1.2-.3.4-.3.4s0 .1-.1.1c.1.1.2.1.3.1-.1.2-.5.2-.6.4-.1 0-.3-.1-.2-.3.2.3.1-.2.4-.1.1-.2.2-.3.3-.4-.6.1-1.2.3-1.9.5-.1 0-.1.1-.2.1v-.1c-.2.1-.5.1-.7.2l.1.1c.1.1-.2.1-.2 0-.1 0 0 0 0 .1-.1.1 0-.1-.1-.1-.8.2-1.5.4-2.3.6-.1 0-.1.1-.2.1l-.1-.1c-.1 0-.2 0-.3.1v.2h-.2v-.1c-.9.3-1.9.6-2.8.9-.1.2-.7.3-.7.2l-.9.3c0 .2-.1.2-.2.1-1.2.5-2.5 1-3.7 1.5-.1.2-.9.6-1 .4-1.7.8-3.4 1.6-5 2.5l-.1.1c-.5.3-1.1.6-1.6.9h-.1l-.6.3c-.1.1-.4.3-.4.3-.3.2-.5.3-.8.5 0 0 0 .1-.1 0-.1.1-.2.1-.3.2 0 .2-.8.5-.8.5-.4.3-.9.6-1.3.9 0 0-.7.6-.7.5-2 1.4-3.9 2.9-5.8 4.5.1 0-1 1.1-1.1.9l-.6.6v.1h-.1c-.2.2-.4.4-.6.5 0 .3-.2.6-.5.5-.1.2-.2.2-.3.2l-1.7 1.7-.7.8c-.7.7-1.3 1.5-2 2.2.1 0 0 .2-.1.2-.2.2-.4.5-.6.7-.6.7-1.2 1.5-1.8 2.3l.1-.1c0 .2-.1.2-.1.1-.1.2-.3.3-.4.5v.2c-.1.1-.2.1-.2.1-.3.4-.6.9-.9 1.3.4-.1-.1.3-.1.1-.6.8-1.2 1.7-1.7 2.6.1.1-.1.6-.4.7-.3.5-.6.9-.8 1.4.2-.2.4.2-.1.2-1 1.8-2 3.7-2.9 5.7.1.1-.1.4-.3.5-.2.5-.4 1-.7 1.5 0 0 .1.2-.1.3v.2c-.2.5-.4.9-.6 1.4.1 0 0 .2-.1.2-.9 2.4-1.8 4.9-2.5 7.6.1 0 0 .4-.1.3-1.6 5.9-2.5 12.3-2.8 19.2.1.2.1.7 0 .6 0 .9-.1 1.8-.1 2.7 0 5 .4 9.8 1.2 14.4.1-.1.1-.1.3-.1 0 .2-.2.3-.2.4.2 1 .3 2 .5 3 0 .1.1.1.3 0-.1.1-.2.3-.2.5.4 1.7.8 3.4 1.3 5.1 0-.2.1-.5.2-.7.3.2 0 .6.2.9-.1 0-.2 0-.3.1.6 2.2 1.3 4.3 2.1 6.4h.1c0 .1.1.3.1.5 3.3 8.5 8 15.9 13.6 22.1 0-.1 0-.2.1-.3.2.2.3.4.3.7 2 2.1 4 4.1 6.2 6 .1-.1.2-.2.4-.2-.1.1 0 .4 0 .6 1 .9 2 1.7 3.1 2.5v-.2c0 .1 0 .2.1.2 2.5 1.9 5.1 3.6 7.8 5.2 0-.1 0-.2-.1-.3.2-.2.2-.2.3-.5.2.2.1.6.2 1 11.6 6.6 24.7 10.3 37.8 11.1 14.3.9 28.9-1.5 41.1-8.6v-.2c.1 0 .2.1.2.1 1.1-.7 2.2-1.3 3.3-2.1 0-.1.1-.3.1-.4v.3c.2-.2.5-.4.7-.5 0 0-.1-.1-.2-.1.1-.2.2 0 .3-.1 1.1-.8 2.1-1.6 3.1-2.4-.1-.1.2-.1.1-.2 0 0 .1 0 .1.1.2-.2.5-.4.7-.6h-.1c0-.1.2-.3 0-.3.1-.1.2.1.3.2.2-.2.5-.4.7-.7 0-.1-.1-.1-.2-.2 0-.1.1-.1.2-.1 0-.1-.1-.1-.1-.2-.1 0-.1.1-.1.1-.1.1.1-.2.1-.3.1 0 0 .1.2.1-.3.1.1.3-.1.5 0 0 0 .1.1.1l.6-.6v-.3c.1 0 .1.1.1.2v-.4h.1c0-.1-.1-.1-.1-.2.1-.1.1.2.1 0 0 .1 0 .1.2 0v.2l.4-.4c0-.1.1-.3 0-.4 0-.1.1-.1.2 0 0-.1-.1-.1-.1-.2.2 0 .2.2.2.3l.6-.6c0-.1 0-.4-.1-.3-.1-.1.1-.2.1-.4h.1c.1.1.1.2.1.4.2-.2.3-.4.5-.6v-.7c.2-.1.1.2.3.1v.2c.2-.2.4-.4.6-.7 0-.1 0-.1.1-.1l.1-.1h-.2c.2-.2 0-.4-.1-.5.2-.1.1-.2 0-.3.2 0 .1.3.3.3-.1.2-.1.3 0 .5.2-.3.5-.5.7-.8 0-.1-.1-.3-.1-.2-.1 0 .1-.1 0-.2h.2v.3c.2-.2.4-.5.5-.7 0-.2.2-.2.2-.5.1 0 .1 0 .1.1.2-.2.4-.5.6-.7-.1 0-.1-.1-.1-.2h.2c0-.1-.2-.1-.1-.3 0 0-.1 0-.1.1-.1-.1 0-.2 0-.4.1 0 .3-.2.1-.2 0-.1 0-.2.2-.2-.1.2 0 .2 0 .5l.2.2c.3-.4.5-.7.7-1.1-.1 0-.2 0-.2.1-.1-.1 0-.4 0-.6.2.1.2-.2.5-.1 0 .1-.1.1-.1.2s.1.1.1 0c.1-.1.2-.3.3-.4.9-1.3 1.7-2.7 2.5-4.2-.1-.1 0-.3.1-.3-.1-.1-.2-.1-.1-.3h.1c.1.1.1.2.1.4l.6-1.2c.3-.6.6-1.3.9-1.9 0 0 0-.1-.1-.1v-.2h.1c0 .1 0 0 0 0-.1 0-.1.1 0 .1 0-.1 0-.1.1-.2 0-.1-.1-.3 0-.4.1 0 .1.1.2.2 2.9-6.4 5-13.9 6-22.6-6.2-1.5-12.9-1.9-19.6-2.3z"/><circle class="st1" cx="369.4" cy="244.6" r="13.5"/><path class="st1" d="M273.1 13.3c.9.4 1.6.9 2.3 1.5s1.1 1.3 1.5 2.2c.4.8.6 1.7.6 2.7v35.7c0 .3-.1.6-.3.8-.2.2-.5.3-.8.3h-8.5c-.3 0-.6-.1-.8-.3-.2-.2-.3-.5-.3-.8V22.7H260v32.6c0 .3-.1.6-.3.8-.2.2-.5.3-.8.3h-7.7c-.3 0-.6-.1-.8-.3-.2-.2-.3-.5-.3-.8V22.7h-6.8v32.6c0 .7-.4 1.1-1.2 1.1h-8.4c-.8 0-1.2-.4-1.2-1.1V13.9c0-.7.4-1.1 1.2-1.1h36.8c.8-.1 1.7.1 2.6.5zm41.3 32.6c.3 0 .6.1.8.3.2.2.3.5.3.8v8.2c0 .3-.1.6-.3.8-.2.2-.5.3-.8.3h-29c-.8 0-1.2-.4-1.2-1.2V13.9c0-.8.4-1.2 1.2-1.2h8.9c.8 0 1.2.4 1.2 1.2v30.8c0 .3.1.6.4.8.2.2.5.3.9.3h17.6zm44.7-33.2c.3 0 .6.1.9.3.2.2.4.5.4.8v41.4c0 .3-.1.6-.4.8-.2.2-.5.3-.9.3h-9c-.3 0-.6-.1-.9-.3-.2-.2-.4-.5-.4-.8V40.9c0-.3-.1-.6-.3-.8-.2-.2-.5-.3-.8-.3h-12.8c-.3 0-.6.1-.9.3-.2.2-.4.5-.4.8v14.4c0 .8-.4 1.2-1.2 1.2h-8.9c-.8 0-1.2-.4-1.2-1.2V13.9c0-.8.4-1.2 1.2-1.2h8.9c.8 0 1.2.4 1.2 1.2v14c0 .8.4 1.2 1.2 1.2h12.8c.3 0 .6-.1.8-.3.2-.2.3-.5.3-.8V14c0-.3.1-.6.4-.8.2-.2.5-.3.9-.3h9.1z"/><g id="minimum" class="st2"><path class="st3" d="M256.9 174c0-.2.2-.4.4-.4h2c.2 0 .4.2.4.4v11h5.5c.2 0 .4.2.4.4v1.6c0 .2-.2.4-.4.4h-7.8c-.2 0-.4-.2-.4-.4v-13zm20.7-.6c4.3 0 7.7 3.2 7.7 7.1 0 3.9-3.4 7.1-7.7 7.1-4.3 0-7.7-3.1-7.7-7.1 0-3.9 3.4-7.1 7.7-7.1zm0 11.6c2.7 0 4.9-2 4.9-4.5s-2.2-4.5-4.9-4.5-4.9 2.1-4.9 4.5c0 2.5 2.2 4.5 4.9 4.5zm20.5-11.6c2.2 0 3.7.6 5.2 1.8.2.2.2.4 0 .6L302 177c-.2.2-.4.2-.5 0-.9-.7-2.1-1.2-3.3-1.2-2.7 0-4.8 2.1-4.8 4.6 0 2.5 2.1 4.5 4.8 4.5 1.3 0 2.4-.5 3.3-1.1.2-.1.4-.1.5 0l1.3 1.3c.2.1.1.4 0 .5-1.5 1.3-3.3 1.9-5.2 1.9-4.3 0-7.7-3.1-7.7-7.1 0-3.8 3.4-7 7.7-7zm9.5 13.5l6.7-13.2c.1-.1.2-.2.4-.2h.2c.2 0 .3.1.4.2l6.6 13.2c.1.3 0 .5-.4.5h-1.9c-.3 0-.5-.1-.6-.4l-1-2.1h-6.4l-1 2.1c-.1.2-.3.4-.6.4h-2c-.4 0-.5-.3-.4-.5zm9.2-4.2l-2.1-4.3h-.1l-2.1 4.3h4.3zm10.4-8.7c0-.2.2-.4.4-.4h2c.2 0 .4.2.4.4v11h5.5c.2 0 .4.2.4.4v1.6c0 .2-.2.4-.4.4h-7.8c-.2 0-.4-.2-.4-.4v-13zm-48.8 71.9h-5.8c-.2 0-.4.2-.4.4v14.8c0 .2.2.4.4.4h5.8c4.7 0 8.5-3.5 8.5-7.8.1-4.3-3.8-7.8-8.5-7.8zm-.2 12.9h-2.8v-10.2h2.8c3.2 0 5.5 2.2 5.5 5.1-.1 2.9-2.4 5.1-5.5 5.1zm26.8 2.1l-7.5-15c-.1-.1-.2-.2-.4-.2h-.2c-.2 0-.3.1-.4.2l-7.5 15c-.1.3 0 .6.4.6h2.1c.4 0 .6-.2.7-.4l1.2-2.4h7.3l1.2 2.4c.2.3.3.4.7.4h2.1c.2 0 .4-.3.3-.6zm-10.5-4.8l2.4-4.9h.1l2.4 4.9h-4.9zm17.1-2.1l-5.5-7.5c-.2-.3 0-.6.4-.6h2.5c.2 0 .3.1.4.2l3.9 5.1 3.9-5.1c.1-.1.2-.2.4-.2h2.5c.4 0 .6.4.4.6l-5.6 7.4v7.1c0 .2-.2.4-.5.4H312c-.3 0-.5-.2-.5-.4v-7z"/><g class="st3"><path d="M254.6 216.4v-8.9c0-.1 0-.2-.1-.2.1 0 .1 0 .1-.1v-7.7c0-.1 0-.2-.1-.2h.1v-2.2h-.2v.1s-.1 0-.1-.1H253v.2h-.1c0-.1-.1-.2.1-.2h-.7s-.1.1 0 .1c0 0 0 .1-.1.1 0 0 0-.1.1-.1h-1.4s.1.1 0 .1c0 .1.1.1.1.2h-.1c.1 0 .1-.2 0-.2 0-.1.1 0 .1 0 0-.1 0-.1-.1-.1h-1.4s-.1 0 0 .1v-.1h-1v.1h-1.3v.1c-.1 0-.1 0-.2-.1h-1.3v.2h-.2v-.2h-.2v1.2s.1.1.1 0h-.1v.5c.1.1.1.2 0 .3v4.1h.1v.1s-.1 0-.1-.1v2.1c.1.1.1.2.1.3h-.1v5.8c0 .1.1.2.1.3h-.1v.4c-.3 0-.7 0-1 .1 0 .1-.1 0-.2 0h-.6s-.1.1-.2 0h-.3c0 .1.1.3 0 .4-.1-.1-.1-.3-.1-.4h-.8c.1 0 .1.3.1.4 0 0 0 .1-.1.1-.1-.2 0-.3 0-.4h-.7c.1.1.1.2.1.4h-.2v-.4h-.6v.4c-.2 0-.2-.2-.1-.4h-.6v.4c-.2 0-.2-.4-.1-.3-.2 0-.5 0-.7.1-.2 0-.5 0-.7.1.1.1.1.3.1.4-.1 0-.1-.2-.1-.3-.2 0-.5 0-.7.1.1.1.1.2.1.3h-.1v-.3h-.6c0 .1 0 .1.1.2 0 .1-.1.1-.1.2-.1 0-.1-.1-.1 0v-.3h-.7c0 .1 0 .2.1.3h-.1v-.3c-.2 0-.5 0-.7.1v.2c-.1 0-.1-.2 0-.2h-.7v.2c-.1 0-.1-.1-.1-.2h-.6v-3.6s0-.1-.1-.1c0 0 .1-.1.1 0v-4.6h-.1v-.5h-.1v-.5s0-.1 0 0v-.2h.1v-.3c.1-.1-.2-.3 0-.4 0-.1 0 0-.1 0l.1-.1v-.4c-.1-.1-.1-.2 0-.3v-.5h-.1c0-.1.1-.1 0-.2h.1v-.1s-.1 0 0 0c-.1 0 0-.1 0-.1v-.3c0-.1-.1-.1-.1-.2.1-.1.1-.2 0-.3.1.1.1 0 .1-.1v-.1h-.1c0-.1.1-.1 0-.2 0-.1 0 0 .1 0 0 0-.1 0 0-.1v-.1h-.1.1v-.2c0-.1 0-.1-.1-.1 0-.1.1-.1 0-.1v-.6h-.1v-.4c.2.1.1.2.1.4v-.9h-.1v-.1c0-.1.1-.1.1-.1-.1.1 0-.1-.1-.2.1 0 .1.1.1.2v-.6h-.4c.1 0 .1.1 0 .1.1 0 .1.1.1.1s0 .1-.1.1v-.3h-1.2c0 .1.1 0 .1 0h-.1v-.1h-1.4v.1h-.1v-.1h-.7v.1c-.1 0-.1-.1-.1-.1h-.6v.1c-.1 0-.1-.1 0-.1h-.8l.1.1v.1s-.1-.1-.1-.2h-.7v.1c.1-.1.1 0 .1.1v-.1.1c-.1 0 0-.1-.1-.2h-3.7v32.5h.1v1.9h-.1v1.6h.1s0 .1-.1.1v1.3c.1-.1.1-.1.2-.1 0 .1-.2.1-.2.2h-.1v1.5s.1 0 .1-.1c0 .1-.1.1-.1.2v4.4s.1-.1.2-.1v.1h-.1v1.7h.1s0 .1-.1.1v1.3s.1-.1.2-.1v.1c.8-.2 1.6-.4 2.3-.5h-.1c0-.1.2-.2.3-.2 0 .1-.1.2-.2.2.5-.1 1-.2 1.4-.3h.1c.3-.1.6-.1.9-.2l.1-.1c.1 0 0 .1-.1.2.6-.1 1.2-.3 1.8-.4.3-.1.6-.1.9-.2l.1-.1v.1h-.1c.6-.1 1.1-.2 1.7-.4v-.8s0 .1-.1.1 0-.1-.1-.1c0-.1.1-.1.1-.1v-1.5h-.1c.1 0 .1-.1.1-.2v-1.6c-.1.1-.1.1-.1.2 0 0-.1 0-.1-.1.1 0 .1-.1.2-.2v-.3.1c-.1 0-.1 0-.1-.1.1 0 .1-.1.1-.1v-.2l-.1-.1h.1v-.9.1c-.1 0-.1.1-.2 0l.1-.1v-.1l.1-.1v-.2h-.1c0-.1 0-.1.1-.1v-1.2c-.1 0-.1.1-.2.1v-.1s.1 0 .1-.1h.1v-.1h-.1l.1-.1v-.8c-.1 0-.2.1-.2.2-.1 0 0 0 0-.1 0 .1-.1-.1 0-.1v.1c0-.1.1-.1.2-.2v-.2.1h-.1c-.2-.1.1-.1.1-.2v-.3h.1v-.9s-.1.1-.2.1c.1 0 0 .1-.1 0 .1 0 .1-.1.2-.1h.1v-.2l-.1.1s0-.1-.1-.1c.1 0 .1-.1.2-.1v-.2l-.1-.1h.1v-.6l-.3.3c-.1 0-.1-.1 0-.1l.1-.1c-.1-.1.1 0 .1 0v-.1h.1v-.5h-.1s-.1 0 0-.1c0 0 .1 0 .1-.1v-1.1s-.1 0-.1.1c-.1 0 0 .1 0 .1s0-.1-.1 0c-.1-.2.1-.1.2-.3v-.2l-.1.1v-.1h.1v-.5h-.1s.1-.1 0-.1v-.6l-.1.1v-.1h.1v-.1h.1v-.2h-.1s0-.1.1-.1v-1.1c-.1 0-.1 0-.2.1v-.1c0 .1.1 0 .1 0l.1.1s-.1 0 0-.1h.1v-.3h-.1v-.7h.3l.1.1c.1 0 .3 0 .4-.1.4-.1.8-.1 1.3-.1h.1c.4 0 .8-.1 1.2-.1.1 0 .1 0 .1-.1.1 0-.1.1 0 .1 1.4-.2 2.8-.3 4.2-.5v-.3c.1 0 .1.1.2.2v.1c.2 0 .4 0 .7-.1v-.1s.1 0 .1.1c.9-.1 1.9-.2 2.8-.3v3.3h.1c0 .1 0 0 .1 0 0 .1-.1.1-.1.1v-.1h-.1v4.5s.1 0 .1-.1c0 .1-.1.1-.1.1v5.3h.1s-.1 0-.1.1v1.2s.1 0 .1-.1c0 .1-.1.1-.1.1s.1 0 0 .1v1.8s0-.1.1-.1h-.1c-.1 0 0 .1-.1 0v.1l-.1-.1v.5c.5-.1 1-.2 1.6-.3 0 0-.1 0-.1-.1.1-.1.2 0 .1-.1 0-.1.1 0 .1 0v.1s-.1 0-.1.1c.1 0 .2 0 .3-.1l.1-.1v.1c2.5-.4 5-.8 7.6-1.2 0-7.1.1-14.2.1-21.3-.2-.7-.2-.8-.1-.8zm104.6 6.1l-.3-.6-.1.1v-.1s0-.1.1-.1c-.1-.2-.2-.4-.3-.7l-.1.1s.1-.1.1 0c0 0 0-.1-.1-.1 1-.7 1.9-1.4 2.6-2.2.2-.3.5-.6.7-.9-.1 0-.1-.1-.1-.2.1 0 .1.1.1 0h.1s0-.1.1-.1c0 0-.1.1-.1 0l.1-.1c.6-.9 1.1-1.8 1.6-2.8h.1c.1-.1.1-.3.2-.4v-.2c-.1 0-.1.1-.2.1 0 0 0-.1-.1-.1.1 0 .1 0 .2-.1h.1c.9-2.3 1.3-4.9 1.5-7.6v-.1h.1c.1-.8.1-1.7.1-2.5h-.1v-.1h.1v-4.4h-.1.1V198h-4.1c0 .1 0 0-.1 0H360s-.1.1 0 .2c-.1 0-.1.1-.2.1 0 0 0-.1-.1-.1 0 0 .1 0 0-.1.1-.1.1 0 .2-.1h-2.8c-.1.1-.1.1-.2.1 0 0 0-.1.1-.1h-.9s-.1.1-.2 0h-.1v.9s0-.1.1-.1v.1c0 .1.1 0 .1.1 0 0-.1 0-.1.1v.3h.1s-.1 0-.1.1v1.6l.1-.1h.2v.1h-.1s0 .1.1.1c-.1.1-.2.1-.1.1h-.1v-.1.3l.1-.1c0 .1.1 0 .2.1h-.2s-.1.1 0 .1c0 0-.1 0-.1.1v1.5h.1v-.1c.1 0 .1 0 .1-.1h-.1.1v.2h-.1l-.1.1s.1.1 0 .1c0-.1 0 0-.1 0v.3s.1 0 .1-.1c0 .1.1.1.2 0 0 .1-.2.1-.2.2h-.1v.2c.1 0 .1 0 .2-.1 0 .1-.1.1-.2.1 0 .1 0 .1-.1.2v.4c0 .3 0 .6-.1.8 0 0 0 .1.1.1l-.1-.1c0 .5-.1.9-.2 1.3v-.1s.2 0 .2-.1c.1 0 0 .1 0 .1s.1-.1.1 0c-.1.1 0 .1-.2.2v-.1c-.1 0 0 .1-.1.2v-.1c0 .1 0 .3-.1.4.1-.1.2-.3.3-.1 0 .1-.1.2-.3.3v-.1c-.1.3-.1.7-.2 1 .1 0 .1-.1.2-.2v.1c0 .1-.2.1-.3.2.1 0-.1 0 0 .1 0 .1-.1.2-.1.4 0 .1-.1.1 0 .2 0 .1-.1.2-.1.4-.1.3-.2.6-.4.9h.1c.1.1 0 .1-.1.2 0 0 0 .1-.1.1-.1.1-.1.3-.2.4l.1-.1c0 .1-.1.3-.2.3-.2.2-.3.4-.5.7 0 0 .1 0 .1-.1 0 0 0 .1 0 0-.1.1-.2.3-.3.3-.3.3-.7.6-1.1.9v.1c-.2.1-.3.2-.5.3h-.1c0 .1-.2.2-.2.1h.1c-.4.1-.7.3-1.1.3 0 .1-.1.1-.1.1v-.1c-.1 0-.3 0-.4.1 0 0-.1 0-.1.1-.3 0-.6.1-.9.1-.1.1-.1.1-.2.1 0 .1-.1.1-.2 0 .1 0 .2-.1.2-.2h-.6c-.1 0-.1-.1-.1.1h-1.3v-.8l-.2.2c-.1 0-.1-.1-.1-.1.1-.1.2-.2.3-.2v-.3h-.1s0-.1.1-.1v-1.7h-.1c0 .1-.1.2-.2.1.1 0 .2-.1.2-.2v-.2c-.1-.1-.1-.1-.1-.2 0 0 .1 0 .1-.1v-.8c-.1 0-.3.2-.5.4-.1 0-.1-.1-.1-.1.1-.1.4-.4.5-.3v-.5c-.1.1-.1.3-.3.3 0-.2.2-.2.3-.4v-.3l-.2.2s-.1 0-.1-.1c.1-.1.2-.2.3-.2v-.2c-.1 0-.1-.1-.1-.2h.1v-1.6h-.1c0 .1 0 .1-.1.1-.1-.2 0-.2.2-.3v-.3h-.1l-.1-.1.1-.1v-1.6s-.1.1 0 .1c0-.1-.1.1-.2.1 0-.1.2-.2.3-.3v-.2l-.1.1c0-.1-.1 0-.1-.1.1 0 .1-.1.2-.2v-.3c0-.1-.1-.1-.1-.2h.1v-.8h-.1c-.1.1-.2.3-.4.3v-.1c.1-.1.3-.2.4-.3v-.2c0 .1-.1.1-.2.1l-.1-.1c.1 0 .2-.1.2-.2h.1v-.2c-.1-.1-.2-.1-.1-.2.1 0 .1 0 .2-.1v-1.2h-.1.1v-.4c-.1.1-.2.1-.2.2 0 0-.1 0-.1-.1.1 0 .1-.1.1-.1v.1s.1-.1 0-.1c.1 0 .1 0 .1-.1v-.2s-.1 0-.1.1c0 0 0-.1-.1-.1v-.1h.1v-1.4c-.1.1-.2.2-.2.3 0 0-.1 0-.1.1-.1 0-.1-.1-.1-.2.1 0 .1-.1.2-.2h-.5c-.1 0-.1.1-.2.1s0-.1.1-.1h-.6s0 .1-.1.1v-.1h-7.8v6.2h.1c0 .1-.1.1-.1.1v2.1s0-.1 0 0h.1c.1 0 0 0 0 0v.1c-.1 0-.1 0-.1.1h-.1v1.8h-.1v4.5c.1 0 0-.1.1-.1h.1c0 .1-.1.2-.2.2v-.1 7h.1s0 .1.1.1l-.1.1v12c.1 0 0 .1 0 .2h-.1v.3h.1v.1h.1s0 .1 0 0h-.1s.1 0 0 0h-.1v5.1h.1v.6h-.1v.1c.8.1 1.7.2 2.5.4.1 0 .3 0 .4.1h.1v.1c.5.1 1 .2 1.5.2 0-.1.1-.1.1 0s-.1.1-.1 0c.2 0 .5.1.7.1.3.1.7.1 1 .2h.1v.1c1 .2 2 .3 3.1.5 0-5.3 0-10.7-.1-16 1.2.1 2.3.3 3.6.1 2.7 5.8 5.4 11.8 8 18 3.4.7 6.8 1.5 10.3 2.3V243c-3-7-6-13.6-9.1-19.9.2-.5.2-.6.2-.6zM292 227s-.1-.2-.1-.3c-.1-.3-.3-.6-.4-.9-.2-.5-6.8-15-7.1-15.7h-.1s0-.1.1-.1c-.4-.9-.8-1.9-1.3-2.8v-.1c-.5-1-.9-2-1.4-3v-.1c-.2-.3-.3-.7-.5-1.1 0 .1 0 0 0 0-.8-1.9-1.7-3.6-2.5-5.6h-1.8s.1.1 0 .1v-.1h-2.2c-.4 1-.9 2-1.3 3.1h.1v.1c0 .1-.2.1-.2.2v.1c-.1.3-.3.6-.4.8-.2.4-.3.8-.5 1.2 0 .1-.1.1-.1.2v.1c0 .1-.1.1-.1.2 0 0 0 .1.1.1h-.1c-.1.3-.3.6-.4.9v.1h-.1c0 .1-.1.1-.1.2.1 0 .1.1.1.1-.1 0-.1-.1-.1-.1-.2.4-.4.8-.5 1.2l.1.1-.1-.1c0 .1-.1.1-.1.2 0 0 .1 0 .1.1l-.1-.1c0 .1-.1.1-.1.2-.1.1-.1.3-.2.4 0 .1-.1.1-.1.2 0 0 0 .1.1 0 0 .1-.1.1-.1.1h-.1c0 .1 0 .1-.1.2 0 .1.1.1.1.2 0 0 0-.1-.1-.1v-.1c0 .1-.1.1-.1.2v.1c-.1.2-.2.5-.3.7v.1c0 .1-.1.1-.1.2l.1.1s0-.1.1 0l-.1.1v-.1c0 .1-.1.1-.1.2l.1.1h.1v.1c0-.1-.1-.1-.1-.2-.1.3-.3.6-.4.9 0 .1.1.1.1.1-.1.1-.1 0-.1 0s0 .1-.1.1c0 0 .1-.1.1 0h-.1l.1.1v.1c.1.1-.1.1-.1.2 0 0-.1-.1-.1 0v-.1.2c-.1.2-.2.4-.3.7h-.1v.1c0 .1 0 .1-.1.2 0 0 .1.1.1.2h-.1c0 .1-.1.1-.1.2l.2.2h-.1s-.1-.1-.1-.2c-.1.2-.2.5-.3.7 0 .1-.1.2-.1.2s0 .1.1.1h-.1c0 .1-.1.1-.1.2l.1.1-.1-.1c-.1.3-.3.6-.4 1 0 .1-.1.2-.1.3 0 0 0 .1.1.1h-.1c0 .1-.1.1-.1.2.1 0 .1.1.1.2l-.1-.1c0 .1-.1.2-.1.2 0 .1.1.1.2.2-.1-.1-.2-.1-.1-.2-.1.2-.2.5-.3.7v.1h-.1c0 .1-.1.1-.1.2 0 0 0 .1.1.1 0 0-.1 0-.1-.1 0 .1-.1.1-.1.2l.1.1c-.1 0-.1-.1-.1-.1 0 .1-.1.2-.1.3 0 0 .1.1.1.2-.1 0-.1-.1-.1-.1-.1.2-.2.5-.3.7 0 0 0 .1.1.1v-.1c0 .1-.1.2-.1.3l.1.1s-.1 0 0 0c0 0-.1 0 0 0l-.1-.1c-.1.2-.2.5-.3.7-2.5 5.8-5 11.7-7.5 17.8v1.5c3-.4 6.1-.7 9.1-1 .7-1.7 1.4-3.4 2.2-5 2.3-.2 4.7-.3 7-.5h-.1v-.1c.1 0 0 .1.1.1.8 0 1.7-.1 2.5-.1v-.1c.1 0 .1 0 0 .1h.3v-.3s0 .1.1.1c-.1.1 0 .2-.1.2h.3v-.1.1c.7 0 1.5-.1 2.2-.1h.8v-.1h.4c0-.1-.1-.1 0-.1s0-.1 0-.1c-.1 0-.1-.2 0-.2s.1.1.1.2h.1v.2h.6c.1.3.3.6.4.9 0-.1 0 0 0 0 .2 0 .2-.3.2.7.2 0 .4.7.6 1.1v-.2c.1.1.2.2.2.3h-.1c.3.6.6 1.2.8 1.8.1 0 .3.1.4.1-.1 0-.1-.1-.1-.1h.1s-.1 0 0 0v.1h.7v-.1.1h.6v-.1h.1v.1h.6c0-.1 0-.3.1-.3-.1.1 0 .2.1.3h.6v-.2h.1v.2h.6v-.2c.1 0 .1.1.1.2h.7v-.2c.1 0 .1.1.1.2h.7v-.2c0-.2.1.1.1.2h.7c-.1-.1-.1-.1 0-.2.1 0 .1.1 0 .2h.8c0-.1-.1-.1-.1-.2s.1-.1 0-.1c.2 0 .2.2.1.2 0 0 .1.1 0 .1h.7v-.2c.1-.1.3.1.3.2h1.2v-1.4c-.5-.1-3.8-6.6-3.9-6.9zm-19.9-23.8s.1 0 0 0c.1 0 .1 0 0 0 .1 0 .1 0 0 0zm8.6 19.6s-7.3.1-8.3.1c.1-.2.1-.3.2-.5 0 0-.1 0-.1-.1h.1c.5-1.3 1.1-2.6 1.6-4 .1-.1.1-.2.2-.4v.3c.2-1 .3-.9.5-1.3v-.2c.1-.2.2-.4.2-.6v-.1h.1c.1-.3.2-.5.3-.8v-.1c0-.1.1-.2.1-.2v-.1l.1.1c.2-.4.3-.8.5-1.2 0 0-.1-.2 0-.1h.1c.1-.3.3-.7.4-1 0 0 .3.6.4.9l1.1 2.6s.4.8.3.8l.4.9.6 1.5v-.1h.1v.2c0 .1 0 .1.1.2v.1c0 .4 1.1 3.1 1 3.1zm46-1c0 .1 0 .1-.1.2-.4.1-.9.1-1.3 0-1.6-.4-3.5 2-2.7 3.5.2.4.4.8.4 1.2-.6.6-2.4 1.7-3.5 1.9-.3-.2-.6-.5-.8-.9-.2-.4-.7-.6-1.2-.7-.7.2-1.4.3-2.2.3-.5.2-.8.6-.9 1-.1.4-.3.8-.6 1.1-.3 0-.8-.1-1.2-.2h-.1c-.9-.2-1.8-.5-2.5-.8-.1-.4-.1-.9 0-1.3v-.3.1c-.1 0 .1-.2 0-.2 0 0 .1 0 .1.1 0-.3-.1-.6-.2-.8-.1-.1-.1-.2-.2-.3-.4-.3-.8-.6-1.1-1-.7-.4-1.4-.5-2-.2-.2.1-.5.2-.7.3 0 0-.1.1-.1.2v-.1h-.5l-.3-.3h-.1c0-.1 0-.1-.1-.1-.6-.8-1.3-2.1-1.5-2.7.1-.4.5-.7.8-.9v-.1c.1 0 .1-.1.2-.1v-.1c.1.1.1 0 .1-.1l.1.1c.1-.1.2-.2.2-.3v-.2h.1c.4-.7.5-1.7.1-2.5h-.1c.1-.1 0 0-.1-.1 0-.1 0-.1.1-.1-.1 0 0-.1 0-.1-.2-.4-.6-.7-1.1-.9h-.1c-.5-.1-1.1-.5-1.2-.7v-.3c0-.1 0-.2.1-.4 0-.2.1-.5.2-.8v-.2c.1-.6.3-1.1.5-1.6 0-.1.1-.2.1-.3.4-.2.9-.2 1.4-.1.5.1 1.1-.1 1.6-.5.1-.3.3-.6.4-.8h-.1v-.1s.1 0 .1-.1v-.1h.1c.1-.2.3-.4.4-.6.1-.1.2-.2.2-.3 0-.2.1-.3 0-.5 0 0-.1.1 0 .2 0 0-.1 0-.1-.1h.1v-.1s0-.1.1-.1c0-.2-.1-.3-.1-.4-.1-.1-.1-.2-.1-.3h-.1v-.1h.1c-.1-.3-.1-.6-.1-.8 0 0-.1 0-.1.1 0 0 .1 0 0-.1h.1v-.1c.4-.3 1-.7 1.6-1h.1c.1-.1.2-.1.3-.2 0 0 .2-.1.2-.2 0 0 0 .1-.1.1.5-.2.9-.5 1.2-.5.1.1.3.2.5.3l.1-.1s-.1 0 0 .1h-.1c.1.1.2.2.3.4l.1.1c.1.1.1.2.2.3h.1v.1l.2.2c.1 0 .1-.1.2-.2 0 .1-.1.2-.2.2h.1c.3-.1.7-.1 1-.2h.2v-.1h.2c0 .1 0 0 0 0s0 .1.1.1l-.1.1v.1s-.1-.1-.1 0h.4l.1-.1c0 .1-.1 0 0 .1h-.1 1.5c.1-.1.2-.1.3-.2 0 0-.1 0-.1.1v-.1s.1 0 .1-.1h.1v-.1h.1c0 .1 0 0-.1 0h.1v.1c.2-.2.3-.4.3-.6 0-.2.1-.4.2-.5v-.1c.1-.2.3-.4.4-.5 1.3.1 2.9.6 3.6 1 .1.3.2.9 0 1.3-.4 1.4 2.2 3.4 3.5 2.7.4-.2.8-.3 1.2-.3.5.7 1.5 2.1 1.8 3.2 1.6.1 3.2.1 4.9.2-1.4-10.5-9.4-14.8-16.9-14.9 0 .1-.1.1-.2.2 0 0 0-.1-.1-.1.1 0 .1-.1.2-.1h-2v.1c-.1 0-.1.1-.1.1.1 0 .1-.1.1-.1h-.8c-.3 0-.5.1-.8.1 0 0 0 .1.1.1-.1.1-.1 0-.2.1 0 0 0-.1-.1-.1-.2 0-.5.1-.7.1l-.1.1h.1s-.1 0-.1.1c0 0-.1 0-.1-.1.1.1 0 0 .1 0 0 0 0-.1.1-.1-.2 0-.3.1-.5.1h-.2c-.2 0-.4.1-.6.2h-.2c-.2.1-.5.1-.7.2 0 .1-.2.1-.2.1-.1 0-.2.1-.2.1s0 .1-.1 0c-.3.1-.6.2-.9.4 0 .1-.2.1-.2.1-.4.2-.8.4-1.3.6-.1.1-.3.1-.4.2l-.1.1-.1.1c-.1 0-.1.1-.2.1h-.1l-.2.1c-.1.1-.2.1-.3.2l-.2.1c-.5.4-1 .7-1.5 1.1 0 0-.2.3-.3.2-.1 0-.1.1-.2.1l-.1.1c0 .1 0 .2-.1.1 0 0 0 .1-.1.1l-.4.4-.2.2c-.2.2-.3.4-.5.6 0 0 0 .1 0 0-.1 0-.1.1-.2.2-.2.2-.3.4-.4.6l-.1.1v.1h-.1c-.1.1-.1.2-.2.3.1 0 0 .1 0 0-.1.2-.3.4-.4.6 0 0 0 .1-.1.2s-.1.2-.2.3c.1-.1.1 0 0 .1-.3.5-.5.9-.7 1.4 0 0 0 .1-.1.1-.1.1-.1.3-.2.4v.1c0 .1-.1.2-.1.4 0 0 0 .1 0 0-.2.6-.4 1.2-.6 1.9v.1c-.4 1.5-.6 3.1-.7 4.8v.9c0 1.3.1 2.5.3 3.6h.1s0 .1-.1.1c0 .3.1.5.1.8h.1s0 .1-.1.1c.1.4.2.9.3 1.3v-.2c.1.1 0 .1 0 .2h-.1c.2.6.3 1.1.5 1.6v.1c.8 2.1 2 4 3.4 5.5v-.1c.1 0 .1.1.1.2l1.5 1.5s0-.1.1-.1v.1c.3.2.5.4.8.6v.1c.6.5 1.3.9 2 1.3v-.1s0-.1.1-.1c0 0 0 .2.1.3 2.9 1.7 6.2 2.6 9.5 2.8 3.6.2 7.2-.4 10.3-2.2v-.1h.1c.3-.2.5-.3.8-.5v-.1.1c.1 0 .1-.1.2-.1h.1c.3-.2.5-.4.8-.6v-.1l.2-.2v-.1h.1l.2-.2v-.1h.1v-.1c-.1 0 0 .1 0 .1.1 0 .1-.1.2-.1v-.2s0 .1 0 0v.1l.1-.1v-.2.1c0-.1.1-.1.1-.2v-.2.1l.1-.1v-.2h.1v.1c0-.1.1-.1.1-.2v-.2c.1 0 0 .1.1.1v.1l.2-.2s0-.1 0 0v-.1.1c0-.1.1-.1.1-.2s.1 0 0-.1c0-.1.1-.1.1-.2h.1v-.2s.1-.1 0 0c0 0 0-.1 0 0v.1c.1-.1.1-.2.2-.3v-.1c.1 0 0-.1.1 0 0 0 0-.1.1-.1.2-.3.4-.7.6-1v-.2.1c.1-.1.1-.2.2-.3.1-.2.2-.3.2-.5v-.1c.7-1.6 1.3-3.5 1.5-5.7-1.7.1-3.3 0-5-.1z"/><circle cx="314.6" cy="217.4" r="3.4"/></g><path d="M290.5 155.3c.2.1.4.2.6.4s.3.3.4.5c.1.2.1.4.1.7v8.9c0 .1 0 .1-.1.2s-.1.1-.2.1h-2.1c-.1 0-.1 0-.2-.1s-.1-.1-.1-.2v-8.2h-1.7v8.2c0 .1 0 .1-.1.2s-.1.1-.2.1H285c-.1 0-.2 0-.2-.1-.1-.1-.1-.1-.1-.2v-8.2H283v8.2c0 .2-.1.3-.3.3h-2.1c-.2 0-.3-.1-.3-.3v-10.4c0-.2.1-.3.3-.3h9.2c.3.1.5.1.7.2zm10.4 8.2c.1 0 .2 0 .2.1.1.1.1.1.1.2v2.1c0 .1 0 .2-.1.2-.1.1-.1.1-.2.1h-7.3c-.2 0-.3-.1-.3-.3v-10.3c0-.2.1-.3.3-.3h2.2c.2 0 .3.1.3.3v7.7c0 .1 0 .2.1.2.1.1.1.1.2.1h4.5zm11.1-8.3c.1 0 .2 0 .2.1.1.1.1.1.1.2v10.3c0 .1 0 .2-.1.2-.1.1-.1.1-.2.1h-2.2c-.1 0-.2 0-.2-.1-.1-.1-.1-.1-.1-.2v-3.6c0-.1 0-.2-.1-.2-.1-.1-.1-.1-.2-.1H306c-.1 0-.2 0-.2.1-.1.1-.1.1-.1.2v3.6c0 .2-.1.3-.3.3h-2.2c-.2 0-.3-.1-.3-.3v-10.3c0-.2.1-.3.3-.3h2.2c.2 0 .3.1.3.3v3.5c0 .2.1.3.3.3h3.2c.1 0 .2 0 .2-.1.1-.1.1-.1.1-.2v-3.5c0-.1 0-.2.1-.2s.1-.1.2-.1h2.2z" class="st3"/></g><g class="st2"><path class="st3" d="M421.9 501.1c-3.9.6-7.8 1.2-11.7 1.9 0-6.9.1-13.9.1-20.8-4.6.5-9.2 1-13.8 1.6 0 7.3 0 14.6-.1 21.8-3.9.8-7.8 1.7-11.6 2.6v-56.9h11.7V471c4.6-.4 9.2-.7 13.8-1 0-6.3.1-12.5.1-18.8h11.7c0 16.6-.1 33.2-.2 49.9zm42-9.7c-5.9.2-11.8.6-17.7 1-.9 2-1.8 4.1-2.7 6.2-3.7.3-7.5.7-11.2 1.2V498c6.8-16.6 13.6-32.2 20.4-47.4h4.9c6.7 15.1 13.4 29.8 20.2 44.6v1.7c-3.8 0-7.5.1-11.3.3-.9-2-1.8-3.9-2.6-5.8zm-8.9-22c-1.7 4.1-3.4 8.3-5.1 12.5 3.4-.2 6.8-.3 10.3-.4-1.8-4.1-3.5-8.1-5.2-12.1zm85.3 31.5l-.3-49.8h11.6c0 6.5.1 13 .1 19.5.3 0 .6 0 .8.1 11.4.9 10.8-9.5 10.8-19.5h11.8c0 11.4.3 22.3-8.6 28.2 4.1 8.4 8.1 17.2 12.1 26.5v2.3c-4.2-1-8.4-1.9-12.6-2.8-3.3-7.7-6.6-15-9.9-22.1-1.5.1-2.9 0-4.4-.2 0 6.6.1 13.1.1 19.7-3.9-.8-7.7-1.4-11.5-1.9z"/><g class="st3"><path d="M521.4 480.4c0 .1-.1.1-.1.2-.5.1-1.1.2-1.6 0-1.9-.5-4.3 2.5-3.3 4.3.3.5.5 1 .5 1.5-.8.8-3 2-4.3 2.4-.4-.2-.8-.7-1.1-1.1-.3-.5-.8-.8-1.5-.9-.9.2-1.8.4-2.7.4-.6.3-1 .7-1.2 1.2-.1.5-.4 1-.8 1.4-.4 0-1-.1-1.5-.2h-.1c-1.1-.2-2.3-.7-3-1-.1-.5-.2-1.1 0-1.6 0-.1.1-.3.1-.4 0 0-.1 0-.1.1-.1 0 .1-.2-.1-.2 0-.1.1 0 .1.1 0-.3-.1-.7-.3-1-.1-.1-.2-.3-.2-.4-.5-.4-1-.8-1.4-1.2-.8-.5-1.8-.6-2.5-.2-.3.2-.6.3-.9.3 0 .1-.1.1-.1.2-.1 0 0-.1 0-.2h-.6c-.1-.1-.2-.3-.3-.4h-.1c0-.1 0-.1-.1-.2v-.1c-.7-1-1.6-2.6-1.8-3.4.2-.5.6-.9 1-1.2v-.1c.1 0 .1-.1.2-.1v-.2c.1.1.1-.1.1-.1l.1.1c.1-.1.2-.2.3-.4v-.2l.1.1v-.2h.1c.5-.9.6-2.1.1-3.1-.1 0-.1.1-.1.1.1-.1 0 0-.1-.1 0-.1.1-.1.1-.1v.1c-.1 0 0-.1 0-.1-.3-.5-.8-.9-1.4-1.1h-.1c-.6-.2-1.3-.6-1.4-.9v-.4c0-.1 0-.3.1-.5.1-.3.1-.6.2-1 0 0 0-.2.1-.2.2-.7.4-1.4.6-1.9v-.1c.1-.2.1-.3.2-.4.5-.2 1.2-.3 1.8-.1.6.2 1.3-.1 1.9-.6.2-.4.3-.7.5-1h-.1v-.1c0-.1.1 0 .1-.1h.1v-.1h.1c.2-.3.3-.5.5-.8h.1c.1-.1.2-.2.3-.4 0-.2.1-.4.1-.6 0 .1-.1.1 0 .2-.1 0-.1 0-.1-.1h.1v-.1c0-.1 0-.1.1-.1 0-.2-.1-.4-.2-.5-.1-.1-.1-.2-.2-.3h-.1v-.1h.1c-.1-.3-.1-.7-.2-1 0 0-.1 0-.1.1l-.1-.1c0-.1.1 0 0-.1h.1v-.1c.4-.4 1.2-.8 2-1.3h.1c.1-.1.3-.1.4-.2 0-.1.2-.2.2-.2s0 .1-.1.2c.6-.3 1.1-.6 1.5-.7.2.1.4.2.6.4.1-.1.1-.1.2-.1 0 0-.1.1 0 .1 0 0-.1 0-.1.1.1.1.3.3.4.5 0 .1.1.1.1.2l.3.3.1-.1s-.1 0-.1.1c.1.1.2.1.3.2.1 0 .2-.2.3-.2 0 .1-.1.2-.2.3h.1c.4-.1.8-.2 1.2-.2h.2l-.1-.1s.1-.1.1 0h.1c0 .1 0 0 .1 0 0 .1 0 .1.1.1 0 .1 0 .1-.1.1v-.1.1s-.1-.1-.1 0h.5l.2-.2c0 .1-.1 0 0 .1h-.1 1.8l.3-.3c-.1 0-.1 0-.2.1v-.1c.1 0 .1 0 .1-.1h.1c.1-.1-.1-.1 0-.1h.1c0 .1-.1 0-.1 0s.1.1.1 0v.1c.2-.2.4-.4.4-.7.1-.2.2-.5.3-.7v-.1c.2-.3.3-.5.5-.6 1.6.2 3.6.8 4.5 1.2.1.4.2 1.1.1 1.6-.5 1.8 2.7 4.2 4.3 3.3.5-.3 1-.4 1.5-.4.7.8 1.8 2.6 2.3 3.9 2 .1 3.9.1 6 .2-1.8-13-11.7-18.4-20.9-18.5 0 .1-.2.1-.2.2-.1 0 0-.1-.1-.1.1 0 .2-.1.2-.1H505c-.3 0-.6 0-.9.1v.1c-.1 0-.1.1-.2.1l-.1-.1c.1 0 .1-.1.1-.1-.2 0-.3 0-.5.1h-.5c-.3 0-.6.1-.9.1 0 0 0 .1.1.1-.1.1-.2.1-.3.1l-.1-.1h.1c-.3.1-.6.1-.8.2l-.1.1h.1c0 .1-.2.1-.2.1s-.1 0-.1-.1c.1.1 0-.1.1 0l.1-.1c-.2 0-.4.1-.6.1h-.1c-.1 0-.2 0-.2.1h-.1c-.2.1-.5.1-.7.2h-.2v.1l-.9.3c0 .1-.2.1-.2.1-.1 0-.2.1-.3.1 0 0 0 .1-.1 0-.4.1-.8.3-1.1.5 0 .1-.3.2-.3.1-.5.2-1 .5-1.6.8-.2.1-.3.2-.5.3-.1 0-.1.1-.2.1l-.1.1c-.1.1-.2.1-.2.2 0 0-.1 0-.1.1s-.2.2-.2.2c-.1.1-.3.2-.4.3l-.2.2c-.6.4-1.2.9-1.8 1.4l-.3.3-.2.2-.2.2c0 .1 0 .2-.1.1 0 .1-.1.1-.1.1l-.5.5-.2.2c-.2.2-.4.5-.6.7v.1l-.2.2c-.2.2-.4.5-.6.7 0 .1 0 0 0 0 0 .1-.1.1-.1.2v.1h-.1c-.1.1-.2.3-.3.4.1 0 0 .1 0 0-.2.3-.4.5-.5.8 0 0 0 .2-.1.2-.1.1-.2.3-.3.4.1-.1.1.1 0 .1l-.9 1.8s0 .1-.1.2c-.1.2-.1.3-.2.5v.1c-.1.1-.1.3-.2.4 0 0 0 .1 0 0-.3.8-.5 1.5-.8 2.3v.1c-.5 1.8-.8 3.8-.9 5.9v1c0 1.6.1 3 .4 4.5h.1c0 .1 0 .1-.1.1.1.3.1.6.2.9h.1s-.1.1-.1.2c.1.5.2 1.1.4 1.6 0-.1 0-.2.1-.2.1.1 0 .2.1.3h-.1c.2.7.4 1.3.6 2v.1c1 2.6 2.5 4.9 4.2 6.8v-.1c.1 0 .1.1.1.2.6.7 1.2 1.3 1.9 1.8l.1-.1v.2c.3.3.6.5 1 .8v-.1.1c.8.6 1.6 1.1 2.4 1.6v-.1c0-.1 0-.1.1-.2 0 .1 0 .2.1.3 3.6 2 7.7 3.2 11.7 3.4 4.4.3 8.9-.5 12.7-2.7v-.1h.1c.3-.2.7-.4 1-.6v-.1.1c.1-.1.2-.1.2-.2s.1 0 .1 0c.3-.2.7-.5 1-.8v-.1l.2-.2s.1-.1 0-.1h.1c.1-.1.2-.1.2-.2l-.1-.1h.1v-.2h.1c-.1 0 0 .1 0 .2l.2-.2v-.2s0 .1 0 0h.1v.1l.1-.1v-.1h.1v-.1c.1 0 .1.1.1.1l.2-.2v-.2.1l.2-.2v-.2c.1 0 0 .1.1 0v.1l.2-.2h-.1v-.3c.1 0 0 .1.1.1v.1c.1-.1.1-.2.2-.3v-.2h.1v.1l.2-.2c0-.1.1-.1.1-.1l.2-.2v-.1h.1v-.2s.1-.1 0-.1c0 0 0-.1.1-.1v.2c.1-.1.2-.2.2-.3h-.1v-.2c.1 0 .1-.1.1 0v.1l.1-.1c.3-.4.5-.8.8-1.3v-.1s-.1 0 0-.1v.1c.1-.1.1-.2.2-.4l.3-.6v-.2.1c.9-2 1.6-4.3 1.9-7-2.5.4-4.6.3-6.7.1z"/><circle cx="506.5" cy="475" r="4.2"/></g></g><path class="st4" d="M584.3 399.3h-128v34h128l-35-17zm-576 0h128v34H8.3l35-17z"/><path class="st5" d="M504.3 432.8l-48-33.5v97h48zm-416 0l48-33.5v97h-48z"/><path class="st6" d="M88.5 433.2h415.8V497H88.5z"/><path class="st1" d="M316.4 461.8H304c-.3 0-.6.3-.6.6v6c0 .3.3.6.6.6h4.8v7.5s-1.1.4-4.1.4c-3.5 0-8.5-1.3-8.5-12.1 0-10.9 5.1-12.3 10-12.3 4.2 0 6 .7 7.1 1.1.4.1.7-.2.7-.6l1.4-5.8c0-.1-.1-.3-.2-.5-.5-.3-3.3-1.9-10.5-1.9-8.3 0-16.7 3.5-16.7 20.4s9.7 19.4 17.9 19.4c6.8 0 10.9-2.9 10.9-2.9.2-.1.2-.3.2-.4v-18.8c0-.4-.3-.7-.6-.7zm63.7-15c0-.3-.3-.6-.6-.6h-7c-.3 0-.6.3-.6.6v13.5h-10.8v-13.5c0-.3-.3-.6-.6-.6h-7c-.3 0-.6.3-.6.6v36.4c0 .3.3.6.6.6h7c.3 0 .6-.3.6-.6v-15.6H372v15.6c0 .3.3.6.6.6h7c.3 0 .6-.3.6-.6v-36.4zm-50.6 4.8c0-2.5-2-4.5-4.5-4.5s-4.5 2-4.5 4.5 2 4.5 4.5 4.5 4.5-2 4.5-4.5zm-.5 23.9v-16.8c0-.3-.3-.6-.6-.6h-6.9c-.3 0-.6.3-.6.6v24.1c0 .7.4.9 1 .9h6.3c.7 0 .9-.3.9-.9-.1-1.2-.1-6.3-.1-7.3zm77.6-17.3h-6.9c-.3 0-.6.3-.6.6v17.9s-1.8 1.3-4.2 1.3-3.2-1.1-3.2-3.6v-15.6c0-.3-.3-.6-.6-.6h-7c-.3 0-.6.3-.6.6v16.8c0 7.2 4 9 9.6 9 4.6 0 8.2-2.5 8.2-2.5s.2 1.3.3 1.5c.1.2.3.3.5.3h4.5c.3 0 .6-.3.6-.6v-24.4c-.1-.4-.3-.7-.6-.7zm18.8-.8c-3.9 0-6.6 1.8-6.6 1.8v-12.3c0-.3-.3-.6-.6-.6h-7c-.3 0-.6.3-.6.6v36.4c0 .3.3.6.6.6h4.8c.2 0 .4-.1.5-.3.1-.2.3-1.7.3-1.7s2.9 2.7 8.3 2.7c6.3 0 10-3.2 10-14.4.1-11.4-5.7-12.8-9.7-12.8zm-2.7 20.5c-2.4-.1-4-1.2-4-1.2v-11.5s1.6-1 3.6-1.2c2.5-.2 4.9.5 4.9 6.5-.1 6.3-1.1 7.5-4.5 7.4zM349 458.1h-5.2v-6.9c0-.3-.1-.4-.4-.4h-7.1c-.3 0-.4.1-.4.4v7.1s-3.6.9-3.8.9c-.2.1-.4.3-.4.6v4.5c0 .3.3.6.6.6h3.6v10.8c0 8 5.6 8.8 9.4 8.8 1.7 0 3.8-.6 4.1-.7.2-.1.3-.3.3-.5v-4.9c0-.3-.3-.6-.6-.6s-1.1.1-1.9.1c-2.6 0-3.4-1.2-3.4-2.7V465h5.2c.3 0 .6-.3.6-.6v-5.6c0-.4-.2-.7-.6-.7zm-178.3 16.7h-2v-8.2h-9.2v8.2h-2v-17.4h2v7.4h9.2v-7.4h2v17.4zm16.7-6.6c0 2.1-.5 3.8-1.6 5-1.1 1.2-2.6 1.8-4.4 1.8-1.2 0-2.2-.3-3.1-.8-.9-.5-1.6-1.3-2.1-2.4-.5-1-.7-2.2-.7-3.6 0-2.1.5-3.8 1.6-5 1.1-1.2 2.5-1.8 4.4-1.8 1.8 0 3.3.6 4.4 1.8.9 1.3 1.5 3 1.5 5zm-10 0c0 1.7.3 2.9 1 3.8.7.9 1.7 1.3 2.9 1.3 1.3 0 2.3-.4 3-1.3.7-.9 1-2.1 1-3.8 0-1.7-.3-2.9-1-3.8-.7-.9-1.7-1.3-3-1.3s-2.3.4-2.9 1.3c-.7.9-1 2.2-1 3.8zm22.7 3c0 1.2-.5 2.2-1.4 2.8-.9.7-2.2 1-3.8 1-1.7 0-3.1-.3-4.1-.8v-1.8c.6.3 1.3.6 2 .8.7.2 1.4.3 2.1.3 1 0 1.8-.2 2.4-.5.6-.3.8-.8.8-1.5 0-.5-.2-.9-.7-1.3-.4-.4-1.3-.8-2.6-1.3-1.2-.5-2.1-.8-2.6-1.2s-.9-.7-1.1-1.2c-.3-.4-.4-.9-.4-1.5 0-1.1.4-1.9 1.3-2.5.9-.6 2.1-.9 3.6-.9 1.4 0 2.8.3 4.1.9l-.7 1.6c-1.3-.5-2.5-.8-3.6-.8-.9 0-1.6.1-2.1.4-.5.3-.7.7-.7 1.2 0 .4.1.6.3.9.2.2.5.5.9.7.4.2 1.2.5 2.3 1 1.6.6 2.6 1.1 3.1 1.7.7.4.9 1.2.9 2zm8.3 2.2c.4 0 .7 0 1-.1.3-.1.6-.1.8-.2v1.5c-.2.1-.5.2-.9.3-.4.1-.8.1-1.1.1-2.5 0-3.8-1.3-3.8-4v-7.8h-1.9v-1l1.9-.8.8-2.8h1.1v3h3.8v1.5h-3.8v7.7c0 .8.2 1.4.6 1.8.4.6.9.8 1.5.8zm10.8 1.6c-1.9 0-3.5-.6-4.6-1.8-1.1-1.2-1.7-2.8-1.7-4.9 0-2.1.5-3.8 1.6-5 1-1.2 2.4-1.9 4.2-1.9 1.6 0 2.9.5 3.9 1.6s1.4 2.5 1.4 4.3v1.3h-9c0 1.5.4 2.7 1.2 3.5.7.8 1.8 1.2 3.1 1.2 1.4 0 2.8-.3 4.2-.9v1.8c-.7.3-1.4.5-2 .7s-1.4.1-2.3.1zm-.5-11.9c-1 0-1.9.3-2.5 1-.6.7-1 1.6-1.1 2.8h6.8c0-1.2-.3-2.2-.8-2.9-.6-.5-1.4-.9-2.4-.9zm18.5 9.9h-.2c-.9 1.3-2.3 2-4.1 2-1.7 0-3-.6-4-1.8-1-1.2-1.4-2.8-1.4-5s.5-3.8 1.4-5c1-1.2 2.3-1.8 4-1.8 1.8 0 3.1.6 4.1 1.9h.2l-.1-.9v-6.2h2v18.6h-1.6l-.3-1.8zm-4 .4c1.4 0 2.3-.4 2.9-1.1.6-.7.9-1.9.9-3.6v-.4c0-1.9-.3-3.2-.9-4-.6-.8-1.6-1.2-3-1.2-1.2 0-2 .5-2.7 1.4-.6.9-.9 2.2-.9 3.8 0 1.7.3 2.9.9 3.8.7.8 1.6 1.3 2.8 1.3zm18.4-16.1h4.9c2.3 0 4 .3 5 1s1.6 1.8 1.6 3.3c0 1-.3 1.9-.9 2.6-.6.7-1.4 1.1-2.5 1.3v.1c2.6.5 4 1.8 4 4.2 0 1.6-.5 2.8-1.6 3.7s-2.5 1.3-4.4 1.3h-6.1v-17.5zm2 7.5h3.3c1.4 0 2.5-.2 3.1-.7.6-.4.9-1.2.9-2.3 0-1-.4-1.7-1-2.1-.7-.4-1.8-.7-3.3-.7h-3v5.8zm0 1.7v6.5h3.6c1.4 0 2.5-.3 3.2-.8s1.1-1.4 1.1-2.6c0-1.1-.4-1.9-1.1-2.4-.7-.5-1.8-.8-3.3-.8h-3.5zm12.3-4.8h2.1l2.9 7.5c.6 1.7 1 2.9 1.2 3.7h.1c.1-.4.3-1.1.7-2.1.3-1 1.4-4 3.2-9.1h2.1l-5.6 14.9c-.6 1.5-1.2 2.5-2 3.1-.7.6-1.7.9-2.7.9-.6 0-1.2-.1-1.8-.2v-1.6c.4.1.9.1 1.5.1 1.4 0 2.3-.8 2.9-2.3l.7-1.9-5.3-13z"/></svg>